<?xml version="1.0" encoding="UTF-8"?>
<svg version="1.1" xmlns="http://www.w3.org/2000/svg" width="512" height="512">
<path d="M0 0 C0.93199219 0.77730469 1.86398437 1.55460937 2.82421875 2.35546875 C3.80777344 3.16371094 4.79132813 3.97195312 5.8046875 4.8046875 C27.92555824 23.94939969 41.63466353 51.37866045 44.82421875 80.35546875 C46.61728806 114.35206278 38.60438805 144.01080853 16.82421875 170.35546875 C16.22867188 171.10441406 15.633125 171.85335937 15.01953125 172.625 C10.30272059 178.34610766 4.68521982 182.84951807 -1.17578125 187.35546875 C-2.34753906 188.268125 -2.34753906 188.268125 -3.54296875 189.19921875 C-28.75797805 207.87700341 -60.97306151 214.38931998 -91.7265625 210.09765625 C-122.10010065 205.33029942 -149.47295276 188.5243309 -167.98779297 164.00488281 C-183.13049859 142.98060842 -190.58422484 119.06643907 -190.55078125 93.23046875 C-190.55056976 92.55082062 -190.55035828 91.87117249 -190.55014038 91.17092896 C-190.51576588 80.07317683 -189.50270611 69.94909789 -186.17578125 59.35546875 C-185.82515625 58.16953125 -185.47453125 56.98359375 -185.11328125 55.76171875 C-175.91161531 27.38991544 -155.60188289 2.97749582 -129.20556641 -10.92993164 C-87.55028596 -32.00808474 -37.07130264 -29.38393838 0 0 Z " fill="#ffffff" transform="translate(318.17578125,50.64453125)"/>
<path d="M0 0 C2.21946988 0.00538706 4.43873905 -0.00000633 6.65820312 -0.00634766 C16.00977253 -0.01021546 25.26504082 0.3820202 34.58789062 1.13037109 C33.07619993 4.30003188 31.46724734 6.46978655 29.02539062 9.00537109 C4.69489798 35.97570019 -2.84840046 71.19645421 -1.62353516 106.48925781 C-1.1518467 114.61253919 0.32793464 122.32689655 2.58789062 130.13037109 C2.7915625 130.84757324 2.99523437 131.56477539 3.20507812 132.30371094 C8.64638977 150.79829256 18.22137709 167.12684112 30.65039062 181.75537109 C32.58789062 184.13037109 32.58789062 184.13037109 32.58789062 186.13037109 C4.74535806 186.17712354 -23.09716861 186.21237586 -50.93973255 186.23399544 C-63.86795681 186.24430127 -76.79615665 186.25834841 -89.72436523 186.28125 C-100.99459385 186.30120503 -112.26480478 186.31409257 -123.53505057 186.31854808 C-129.50070777 186.32115187 -135.46631438 186.32725757 -141.43195534 186.34183121 C-147.0518605 186.35544846 -152.67169444 186.35958535 -158.29161453 186.35658646 C-160.34945882 186.35713477 -162.4073056 186.36108742 -164.46513557 186.36878204 C-180.1986561 186.42470614 -192.29590437 186.07286472 -205.59960938 176.94287109 C-213.73167498 168.81080549 -217.69651908 158.21314091 -217.82894897 146.80047607 C-217.82287628 145.95543518 -217.81680359 145.11039429 -217.81054688 144.23974609 C-217.81341705 143.33266907 -217.81628723 142.42559204 -217.81924438 141.49102783 C-217.82127108 139.58515798 -217.81583976 137.67926666 -217.80322266 135.7734375 C-217.7872245 132.90104082 -217.80308054 130.03006715 -217.82226562 127.15771484 C-217.85299733 100.84824256 -209.8699576 80.01935154 -191.41210938 61.13037109 C-190.76628906 60.42267578 -190.12046875 59.71498047 -189.45507812 58.98583984 C-179.12510943 47.93569904 -165.74661407 40.0081359 -152.41210938 33.13037109 C-151.70135254 32.76202148 -150.9905957 32.39367187 -150.25830078 32.01416016 C-104.33896912 8.53002203 -51.21890534 -0.14718076 0 0 Z " fill="#ffffff" transform="translate(243.412109375,278.86962890625)"/>
<path d="M0 0 C1.572987 1.34197076 3.13565057 2.69614099 4.6875 4.0625 C5.49445313 4.72636719 6.30140625 5.39023437 7.1328125 6.07421875 C28.3216136 24.04152501 40.60228718 50.3482501 44.4375 77.5625 C44.55228327 79.06042164 44.63031051 80.5612759 44.6875 82.0625 C44.7390625 83.26648438 44.790625 84.47046875 44.84375 85.7109375 C45.70007684 115.73567511 35.60052678 144.76527823 15.171875 166.953125 C-6.28676658 189.48497814 -34.54530649 202.39646468 -65.73071289 203.41625977 C-97.91029721 203.74458436 -126.38897009 191.1102074 -149.4375 168.984375 C-163.03868837 155.43773686 -172.43078665 137.53760214 -177.3125 119.0625 C-177.62960937 117.87269531 -177.94671875 116.68289063 -178.2734375 115.45703125 C-184.68485294 87.07622437 -179.67390104 56.2318129 -164.50390625 31.4375 C-147.9144854 5.39955082 -123.43430216 -12.23128164 -93.5390625 -19.90625 C-61.75487935 -26.94769308 -25.8351288 -20.30479654 0 0 Z M-82.3125 27.0625 C-87.6163105 32.95562278 -88.78910732 37.1724324 -88.6171875 45.0234375 C-88.07168767 50.46444859 -86.40603468 54.13745906 -82.37109375 57.84765625 C-76.18481352 62.66680272 -71.11063952 63.87359921 -63.3125 63.0625 C-56.12185411 60.96470173 -51.60515345 56.02253778 -47.9375 49.6875 C-46.31362139 42.86720985 -46.9611945 37.28635308 -50.3125 31.0625 C-53.91625168 25.32319177 -58.98662397 23.03254718 -65.3125 21.1875 C-71.95090678 20.91089972 -77.10720798 22.9219268 -82.3125 27.0625 Z M-79.3125 79.0625 C-84.38199967 85.56279624 -83.89363348 92.06525963 -83.84375 100.0625 C-83.84644923 101.42578406 -83.85033522 102.78906623 -83.85534668 104.15234375 C-83.86122166 107.0001877 -83.85274458 109.84752749 -83.83398438 112.6953125 C-83.81119485 116.33024228 -83.82432888 119.96399044 -83.84827423 123.59887695 C-83.8627872 126.41122199 -83.85810137 129.22329079 -83.84776306 132.03564453 C-83.84382926 134.02246882 -83.85589336 136.00930422 -83.86828613 137.99609375 C-83.79720507 144.8634782 -83.60103748 149.56358178 -79.3125 155.0625 C-75.02008957 158.61242366 -71.01550009 159.72355358 -65.453125 159.44921875 C-60.80250867 158.60905266 -58.06570746 155.89713529 -55 152.5 C-52.38138359 148.71755407 -52.17807351 145.81497943 -52.13549805 141.32519531 C-52.12266281 140.14677063 -52.10982758 138.96834595 -52.09660339 137.75421143 C-52.08921646 136.47922791 -52.08182953 135.20424438 -52.07421875 133.890625 C-52.066147 132.57970886 -52.05807526 131.26879272 -52.04975891 129.91815186 C-52.03474379 127.14074839 -52.02490076 124.36337039 -52.01733398 121.5859375 C-52.00628741 118.0406969 -51.97190364 114.49608705 -51.93216228 110.95106888 C-51.89961351 107.55594697 -51.89521017 104.16089082 -51.88671875 100.765625 C-51.86921066 99.4987384 -51.85170258 98.23185181 -51.83366394 96.92657471 C-51.85047167 90.08395006 -52.09749211 85.56824874 -56.3125 80.0625 C-60.936827 75.87858509 -63.80672939 74.69062266 -69.9296875 74.7890625 C-73.8104191 75.23439236 -76.33393399 76.60199437 -79.3125 79.0625 Z " fill="#ffffff" transform="translate(441.3125,282.9375)"/>
</svg>
