<?xml version="1.0" encoding="UTF-8"?>
<svg version="1.1" xmlns="http://www.w3.org/2000/svg" width="512" height="512">
<path d="M0 0 C50.16 0 100.32 0 152 0 C152.375 52.0625 152.375 52.0625 152.47802734 68.48071289 C152.51795147 73.35181011 152.51795147 73.35181011 152.56045532 78.22288513 C152.57810115 80.38671803 152.5919236 82.55058422 152.60269165 84.71446228 C152.61978574 87.99866737 152.64914058 91.28256126 152.68115234 94.56665039 C152.68441056 96.00438734 152.68441056 96.00438734 152.6877346 97.47116947 C152.76924568 103.9858879 153.05515916 109.49949035 157.1875 114.8125 C163.26860468 119.54224809 170.0390096 119.30215087 177.43334961 119.31884766 C178.97107025 119.33391609 178.97107025 119.33391609 180.53985596 119.34928894 C183.91067979 119.38005076 187.28142445 119.39713677 190.65234375 119.4140625 C192.99647194 119.43277976 195.34059344 119.45235359 197.68470764 119.4727478 C203.84131924 119.52401593 209.99795267 119.56367025 216.15466309 119.60089111 C222.44235613 119.64096402 228.72995878 119.6920414 235.01757812 119.7421875 C247.34498853 119.83888387 259.67245004 119.92330887 272 120 C272.09154249 153.14770526 272.16203207 186.29537775 272.20426132 219.44318057 C272.20926418 223.35600079 272.21444147 227.26882077 272.21972656 231.18164062 C272.2207758 231.96061722 272.22182505 232.73959381 272.22290608 233.54217575 C272.24031441 246.15758744 272.27185444 258.77292626 272.30861118 271.38829471 C272.34600873 284.33148117 272.36823334 297.27462946 272.37635398 310.21786773 C272.38184423 318.20547202 272.39918864 326.19287036 272.43166587 334.18041126 C272.45529634 340.30383918 272.45782284 346.42710988 272.45243073 352.55057716 C272.45353302 355.06365923 272.46151407 357.57674894 272.4768219 360.08978462 C272.49667663 363.5167798 272.49195479 366.94288856 272.48101807 370.36990356 C272.49266943 371.36796402 272.5043208 372.36602448 272.51632524 373.39432919 C272.46718427 379.07781246 271.97624588 382.60445954 268 387 C263.44184085 391.04319823 258.18417704 390.41075803 252.41423035 390.36076355 C251.33858322 390.3633316 250.2629361 390.36589966 249.1546936 390.36854553 C245.53290987 390.37351781 241.91154073 390.35692991 238.28979492 390.34057617 C235.65593969 390.33965736 233.0221093 390.33992406 230.38825703 390.34167194 C224.04228357 390.34326672 217.69643749 390.3294168 211.35049676 390.31016796 C204.00990614 390.28856861 196.66936008 390.28618375 189.32873535 390.28381348 C169.94830338 390.26806222 150.56789978 390.22617888 131.1875 390.1875 C87.895625 390.125625 44.60375 390.06375 0 390 C0 261.3 0 132.6 0 0 Z M35.1875 94.4375 C31.24921137 99.05092383 30.5545412 101.59018413 30.68359375 107.4921875 C31.15042017 111.19221913 32.5256358 113.25813697 35 116 C40.07030722 119.77022845 44.97309119 120.12324987 51.14794922 120.14526367 C52.36626434 120.15164352 53.58457947 120.15802338 54.83981323 120.16459656 C56.80242599 120.16626579 56.80242599 120.16626579 58.8046875 120.16796875 C60.17082758 120.17118547 61.53696732 120.17454986 62.90310669 120.17805481 C65.76272378 120.18403111 68.62231071 120.18589625 71.48193359 120.18530273 C75.13228693 120.18520119 78.7824454 120.19885158 82.43275261 120.21607494 C85.2535998 120.2272355 88.07440048 120.2292207 90.89526749 120.22869301 C92.89095757 120.23043494 94.88663314 120.24124926 96.8822937 120.25224304 C107.64002817 120.45249499 107.64002817 120.45249499 116.8125 115.5625 C120.75078863 110.94907617 121.4454588 108.40981587 121.31640625 102.5078125 C120.84957983 98.80778087 119.4743642 96.74186303 117 94 C111.92969278 90.22977155 107.02690881 89.87675013 100.85205078 89.85473633 C99.63373566 89.84835648 98.41542053 89.84197662 97.16018677 89.83540344 C95.19757401 89.83373421 95.19757401 89.83373421 93.1953125 89.83203125 C91.82917242 89.82881453 90.46303268 89.82545014 89.09689331 89.82194519 C86.23727622 89.81596889 83.37768929 89.81410375 80.51806641 89.81469727 C76.86771307 89.81479881 73.2175546 89.80114842 69.56724739 89.78392506 C66.7464002 89.7727645 63.92559952 89.7707793 61.10473251 89.77130699 C59.10904243 89.76956506 57.11336686 89.75875074 55.1177063 89.74775696 C44.35997183 89.54750501 44.35997183 89.54750501 35.1875 94.4375 Z M35.1875 154.4375 C31.24921137 159.05092383 30.5545412 161.59018413 30.68359375 167.4921875 C31.15042017 171.19221913 32.5256358 173.25813697 35 176 C40.12894543 179.81383122 45.08099259 180.1242624 51.32467651 180.13371277 C53.23823944 180.14011024 53.23823944 180.14011024 55.19046021 180.14663696 C56.59686282 180.14628748 58.00326542 180.14582597 59.40966797 180.14526367 C60.89656661 180.14825713 62.38346448 180.15166009 63.87036133 180.15544128 C67.90346864 180.16426628 71.93655473 180.16661876 75.96967077 180.16725707 C78.49094329 180.1679684 81.01221042 180.17010429 83.5334816 180.17275429 C92.33368522 180.18200258 101.13387371 180.1860898 109.93408203 180.18530273 C118.13028379 180.184702 126.32641972 180.19525426 134.52260482 180.2110464 C141.56564737 180.22413194 148.60866842 180.22948621 155.65172303 180.22884732 C159.85548412 180.22859265 164.05918668 180.23142728 168.26293564 180.24202538 C172.2175584 180.25172347 176.17206688 180.25177382 180.12669373 180.24450874 C181.57506096 180.24346505 183.02343537 180.24581302 184.47179031 180.2518692 C186.45496439 180.25962222 188.4381776 180.25373009 190.4213562 180.24723816 C191.52930983 180.24778293 192.63726345 180.24832769 193.77879143 180.24888897 C198.95587905 179.84887762 202.85711325 178.99050185 206.8125 175.5625 C210.75078863 170.94907617 211.4454588 168.40981587 211.31640625 162.5078125 C210.84957983 158.80778087 209.4743642 156.74186303 207 154 C201.87105457 150.18616878 196.91900741 149.8757376 190.67532349 149.86628723 C188.76176056 149.85988976 188.76176056 149.85988976 186.80953979 149.85336304 C185.40313718 149.85371252 183.99673458 149.85417403 182.59033203 149.85473633 C181.10343339 149.85174287 179.61653552 149.84833991 178.12963867 149.84455872 C174.09653136 149.83573372 170.06344527 149.83338124 166.03032923 149.83274293 C163.50905671 149.8320316 160.98778958 149.82989571 158.4665184 149.82724571 C149.66631478 149.81799742 140.86612629 149.8139102 132.06591797 149.81469727 C123.86971621 149.815298 115.67358028 149.80474574 107.47739518 149.7889536 C100.43435263 149.77586806 93.39133158 149.77051379 86.34827697 149.77115268 C82.14451588 149.77140735 77.94081332 149.76857272 73.73706436 149.75797462 C69.7824416 149.74827653 65.82793312 149.74822618 61.87330627 149.75549126 C60.42493904 149.75653495 58.97656463 149.75418698 57.52820969 149.7481308 C55.54503561 149.74037778 53.5618224 149.74626991 51.5786438 149.75276184 C50.47069017 149.75221707 49.36273655 149.75167231 48.22120857 149.75111103 C43.04412095 150.15112238 39.14288675 151.00949815 35.1875 154.4375 Z M35.1875 214.4375 C31.24921137 219.05092383 30.5545412 221.59018413 30.68359375 227.4921875 C31.15042017 231.19221913 32.5256358 233.25813697 35 236 C40.12894543 239.81383122 45.08099259 240.1242624 51.32467651 240.13371277 C53.23823944 240.14011024 53.23823944 240.14011024 55.19046021 240.14663696 C56.59686282 240.14628748 58.00326542 240.14582597 59.40966797 240.14526367 C60.89656661 240.14825713 62.38346448 240.15166009 63.87036133 240.15544128 C67.90346864 240.16426628 71.93655473 240.16661876 75.96967077 240.16725707 C78.49094329 240.1679684 81.01221042 240.17010429 83.5334816 240.17275429 C92.33368522 240.18200258 101.13387371 240.1860898 109.93408203 240.18530273 C118.13028379 240.184702 126.32641972 240.19525426 134.52260482 240.2110464 C141.56564737 240.22413194 148.60866842 240.22948621 155.65172303 240.22884732 C159.85548412 240.22859265 164.05918668 240.23142728 168.26293564 240.24202538 C172.2175584 240.25172347 176.17206688 240.25177382 180.12669373 240.24450874 C181.57506096 240.24346505 183.02343537 240.24581302 184.47179031 240.2518692 C186.45496439 240.25962222 188.4381776 240.25373009 190.4213562 240.24723816 C191.52930983 240.24778293 192.63726345 240.24832769 193.77879143 240.24888897 C198.95587905 239.84887762 202.85711325 238.99050185 206.8125 235.5625 C210.75078863 230.94907617 211.4454588 228.40981587 211.31640625 222.5078125 C210.84957983 218.80778087 209.4743642 216.74186303 207 214 C201.87105457 210.18616878 196.91900741 209.8757376 190.67532349 209.86628723 C188.76176056 209.85988976 188.76176056 209.85988976 186.80953979 209.85336304 C185.40313718 209.85371252 183.99673458 209.85417403 182.59033203 209.85473633 C181.10343339 209.85174287 179.61653552 209.84833991 178.12963867 209.84455872 C174.09653136 209.83573372 170.06344527 209.83338124 166.03032923 209.83274293 C163.50905671 209.8320316 160.98778958 209.82989571 158.4665184 209.82724571 C149.66631478 209.81799742 140.86612629 209.8139102 132.06591797 209.81469727 C123.86971621 209.815298 115.67358028 209.80474574 107.47739518 209.7889536 C100.43435263 209.77586806 93.39133158 209.77051379 86.34827697 209.77115268 C82.14451588 209.77140735 77.94081332 209.76857272 73.73706436 209.75797462 C69.7824416 209.74827653 65.82793312 209.74822618 61.87330627 209.75549126 C60.42493904 209.75653495 58.97656463 209.75418698 57.52820969 209.7481308 C55.54503561 209.74037778 53.5618224 209.74626991 51.5786438 209.75276184 C50.47069017 209.75221707 49.36273655 209.75167231 48.22120857 209.75111103 C43.04412095 210.15112238 39.14288675 211.00949815 35.1875 214.4375 Z M35.1875 274.4375 C31.24921137 279.05092383 30.5545412 281.59018413 30.68359375 287.4921875 C31.15042017 291.19221913 32.5256358 293.25813697 35 296 C40.12894543 299.81383122 45.08099259 300.1242624 51.32467651 300.13371277 C53.23823944 300.14011024 53.23823944 300.14011024 55.19046021 300.14663696 C56.59686282 300.14628748 58.00326542 300.14582597 59.40966797 300.14526367 C60.89656661 300.14825713 62.38346448 300.15166009 63.87036133 300.15544128 C67.90346864 300.16426628 71.93655473 300.16661876 75.96967077 300.16725707 C78.49094329 300.1679684 81.01221042 300.17010429 83.5334816 300.17275429 C92.33368522 300.18200258 101.13387371 300.1860898 109.93408203 300.18530273 C118.13028379 300.184702 126.32641972 300.19525426 134.52260482 300.2110464 C141.56564737 300.22413194 148.60866842 300.22948621 155.65172303 300.22884732 C159.85548412 300.22859265 164.05918668 300.23142728 168.26293564 300.24202538 C172.2175584 300.25172347 176.17206688 300.25177382 180.12669373 300.24450874 C181.57506096 300.24346505 183.02343537 300.24581302 184.47179031 300.2518692 C186.45496439 300.25962222 188.4381776 300.25373009 190.4213562 300.24723816 C191.52930983 300.24778293 192.63726345 300.24832769 193.77879143 300.24888897 C198.95587905 299.84887762 202.85711325 298.99050185 206.8125 295.5625 C210.75078863 290.94907617 211.4454588 288.40981587 211.31640625 282.5078125 C210.84957983 278.80778087 209.4743642 276.74186303 207 274 C201.87105457 270.18616878 196.91900741 269.8757376 190.67532349 269.86628723 C188.76176056 269.85988976 188.76176056 269.85988976 186.80953979 269.85336304 C185.40313718 269.85371252 183.99673458 269.85417403 182.59033203 269.85473633 C181.10343339 269.85174287 179.61653552 269.84833991 178.12963867 269.84455872 C174.09653136 269.83573372 170.06344527 269.83338124 166.03032923 269.83274293 C163.50905671 269.8320316 160.98778958 269.82989571 158.4665184 269.82724571 C149.66631478 269.81799742 140.86612629 269.8139102 132.06591797 269.81469727 C123.86971621 269.815298 115.67358028 269.80474574 107.47739518 269.7889536 C100.43435263 269.77586806 93.39133158 269.77051379 86.34827697 269.77115268 C82.14451588 269.77140735 77.94081332 269.76857272 73.73706436 269.75797462 C69.7824416 269.74827653 65.82793312 269.74822618 61.87330627 269.75549126 C60.42493904 269.75653495 58.97656463 269.75418698 57.52820969 269.7481308 C55.54503561 269.74037778 53.5618224 269.74626991 51.5786438 269.75276184 C50.47069017 269.75221707 49.36273655 269.75167231 48.22120857 269.75111103 C43.04412095 270.15112238 39.14288675 271.00949815 35.1875 274.4375 Z " fill="#ffffff" transform="translate(240,61)"/>
<path d="M0 0 C0.99753296 0.00302124 1.99506592 0.00604248 3.02282715 0.00915527 C6.73798007 0.02481436 10.45298514 0.06669833 14.16796875 0.10546875 C26.63578125 0.19828125 26.63578125 0.19828125 39.35546875 0.29296875 C39.35546875 30.65296875 39.35546875 61.01296875 39.35546875 92.29296875 C34.07546875 91.96296875 28.79546875 91.63296875 23.35546875 91.29296875 C20.08001113 91.41866351 17.01755743 91.57921409 13.79296875 91.98046875 C12.99761719 92.07513428 12.20226562 92.1697998 11.3828125 92.26733398 C-7.5370979 94.71001873 -25.98139886 101.87878304 -40.64453125 114.29296875 C-41.13501953 114.70804687 -41.62550781 115.123125 -42.13085938 115.55078125 C-61.51861027 132.14805486 -75.75474706 155.59099407 -78.64453125 181.29296875 C-80.21844942 203.76689904 -77.80504564 223.19651199 -67.64453125 243.29296875 C-67.10957031 244.35128906 -66.57460937 245.40960938 -66.0234375 246.5 C-52.90626491 270.50096568 -29.52510277 287.93175073 -3.45703125 295.60546875 C2.44094993 297.03827674 8.32441729 297.93931824 14.35546875 298.60546875 C15.12528076 298.69417236 15.89509277 298.78287598 16.68823242 298.87426758 C24.49458684 299.60188942 31.24995639 298.83333624 39.35546875 298.29296875 C39.35546875 328.65296875 39.35546875 359.01296875 39.35546875 390.29296875 C31.06421875 390.37546875 22.77296875 390.45796875 14.23046875 390.54296875 C10.31856689 390.59759277 10.31856689 390.59759277 6.32763672 390.65332031 C4.25098493 390.6650073 2.17432396 390.6751991 0.09765625 390.68359375 C-0.97282959 390.70405762 -2.04331543 390.72452148 -3.14624023 390.74560547 C-9.12563895 390.74839893 -13.0612088 390.56708796 -17.64453125 386.29296875 C-20.64403087 382.49596903 -21.00542427 379.67577769 -20.9375 374.8984375 C-20.92783203 373.69638672 -20.91816406 372.49433594 -20.90820312 371.25585938 C-20.88306641 370.00998047 -20.85792969 368.76410156 -20.83203125 367.48046875 C-20.81849609 366.21525391 -20.80496094 364.95003906 -20.79101562 363.64648438 C-20.75571443 360.52821232 -20.70639944 357.41080833 -20.64453125 354.29296875 C-22.57232422 353.91978516 -22.57232422 353.91978516 -24.5390625 353.5390625 C-29.74518291 352.3804485 -34.45693861 350.48612271 -39.33203125 348.35546875 C-40.14736328 348.00806641 -40.96269531 347.66066406 -41.80273438 347.30273438 C-45.30556797 345.79909279 -48.65096522 344.28934069 -51.9765625 342.4140625 C-54.51422196 340.9894522 -54.51422196 340.9894522 -56.60644531 342.02368164 C-58.71056442 343.33409314 -60.21965252 344.68394957 -61.921875 346.48046875 C-62.51806641 347.09664063 -63.11425781 347.7128125 -63.72851562 348.34765625 C-64.96233546 349.64258202 -66.19411556 350.93945441 -67.42382812 352.23828125 C-72.5117005 357.48532116 -75.97832844 359.45588325 -83.484375 359.65625 C-88.89026052 358.74712278 -92.73749378 355.57688426 -96.51660156 351.80908203 C-97.43064758 350.90449249 -98.3446936 349.99990295 -99.28643799 349.06790161 C-100.26556083 348.08340934 -101.24429094 347.09852634 -102.22265625 346.11328125 C-103.24018353 345.09777728 -104.25815559 344.0827188 -105.27655029 343.06808472 C-107.40281878 340.94622544 -109.52360116 338.81907003 -111.640625 336.68798828 C-114.34954263 333.96195784 -117.07173696 331.24964792 -119.79817581 328.54115486 C-121.9003051 326.44988268 -123.99521644 324.35149724 -126.08803558 322.25091171 C-127.08893653 321.24801522 -128.09205507 320.2473267 -129.09745026 319.2489357 C-130.50225324 317.85178063 -131.89638392 316.44391974 -133.29003906 315.03564453 C-134.08468567 314.23861115 -134.87933228 313.44157776 -135.69805908 312.62039185 C-139.18065265 308.45620762 -139.86414826 304.83500853 -140.0078125 299.453125 C-138.82527476 292.42147588 -133.8515824 288.13428694 -128.95703125 283.41796875 C-128.25513672 282.72960937 -127.55324219 282.04125 -126.83007812 281.33203125 C-125.1082027 279.64529614 -123.37970551 277.96600178 -121.64453125 276.29296875 C-123.47306913 270.35258922 -126.0452704 264.82484811 -128.63476562 259.18945312 C-134.64453125 245.91364319 -134.64453125 245.91364319 -134.64453125 240.29296875 C-135.43102051 240.31391602 -136.21750977 240.33486328 -137.02783203 240.35644531 C-140.60826723 240.43984628 -144.18849767 240.49170651 -147.76953125 240.54296875 C-149.00703125 240.57648438 -150.24453125 240.61 -151.51953125 240.64453125 C-161.8018749 240.75509408 -161.8018749 240.75509408 -165.32421875 238.58984375 C-168.67314168 235.27474832 -170.47273059 232.75283826 -171.0322113 227.99867249 C-171.03761429 226.74880051 -171.04301727 225.49892853 -171.04858398 224.21118164 C-171.05544724 223.51783218 -171.06231049 222.82448273 -171.06938171 222.11012268 C-171.08761571 219.82841247 -171.08381729 217.54739212 -171.078125 215.265625 C-171.08268856 213.6728849 -171.08799466 212.08014678 -171.0940094 210.4874115 C-171.10293387 207.15274038 -171.10052518 203.81830883 -171.09057617 200.48364258 C-171.079089 196.21864905 -171.09929677 191.95448378 -171.12849331 187.68959904 C-171.14687507 184.40122764 -171.14655894 181.11305399 -171.14085579 177.82464409 C-171.14070281 176.25262732 -171.14672822 174.68059695 -171.15914726 173.10862923 C-171.1740933 170.90661399 -171.16335601 168.70611936 -171.14624023 166.50415039 C-171.14607407 165.25348282 -171.1459079 164.00281525 -171.14573669 162.71424866 C-170.41326545 157.71432458 -168.22915666 154.54476851 -164.29418945 151.4362793 C-161.08911641 150.0533108 -158.7353008 149.95044596 -155.25 150 C-154.04794922 150.00966797 -152.84589844 150.01933594 -151.60742188 150.02929688 C-150.36154297 150.05443359 -149.11566406 150.07957031 -147.83203125 150.10546875 C-146.56681641 150.11900391 -145.30160156 150.13253906 -143.99804688 150.14648438 C-140.87977482 150.18178557 -137.76237083 150.23110056 -134.64453125 150.29296875 C-134.39574219 149.00777344 -134.14695313 147.72257813 -133.890625 146.3984375 C-132.732011 141.19231709 -130.83768521 136.48056139 -128.70703125 131.60546875 C-128.35962891 130.79013672 -128.01222656 129.97480469 -127.65429688 129.13476562 C-126.15065529 125.63193203 -124.64090319 122.28653478 -122.765625 118.9609375 C-121.3410147 116.42327804 -121.3410147 116.42327804 -122.37524414 114.33105469 C-123.68565564 112.22693558 -125.03551207 110.71784748 -126.83203125 109.015625 C-127.75628906 108.12133789 -127.75628906 108.12133789 -128.69921875 107.20898438 C-129.99414452 105.97516454 -131.29101691 104.74338444 -132.58984375 103.51367188 C-137.83688366 98.4257995 -139.80744575 94.95917156 -140.0078125 87.453125 C-139.09868528 82.04723948 -135.92844676 78.20000622 -132.16064453 74.42089844 C-131.25605499 73.50685242 -130.35146545 72.5928064 -129.41946411 71.65106201 C-128.43497184 70.67193917 -127.45008884 69.69320906 -126.46484375 68.71484375 C-125.44933978 67.69731647 -124.4342813 66.67934441 -123.41964722 65.66094971 C-121.29778794 63.53468122 -119.17063253 61.41389884 -117.03955078 59.296875 C-114.31352034 56.58795737 -111.60121042 53.86576304 -108.89271736 51.13932419 C-106.80144518 49.0371949 -104.70305974 46.94228356 -102.60247421 44.84946442 C-101.59957772 43.84856347 -100.5988892 42.84544493 -99.6004982 41.84004974 C-98.20334313 40.43524676 -96.79548224 39.04111608 -95.38720703 37.64746094 C-94.59017365 36.85281433 -93.79314026 36.05816772 -92.97195435 35.23944092 C-88.80777012 31.75684735 -85.18657103 31.07335174 -79.8046875 30.9296875 C-72.77303838 32.11222524 -68.48584944 37.0859176 -63.76953125 41.98046875 C-63.08117187 42.68236328 -62.3928125 43.38425781 -61.68359375 44.10742188 C-59.99685864 45.8292973 -58.31756428 47.55779449 -56.64453125 49.29296875 C-50.70415172 47.46443087 -45.17641061 44.8922296 -39.54101562 42.30273438 C-26.26520569 36.29296875 -26.26520569 36.29296875 -20.64453125 36.29296875 C-20.66547852 35.50647949 -20.68642578 34.71999023 -20.70800781 33.90966797 C-20.79140878 30.32923277 -20.84326901 26.74900233 -20.89453125 23.16796875 C-20.92804688 21.93046875 -20.9615625 20.69296875 -20.99609375 19.41796875 C-21.10665658 9.1356251 -21.10665658 9.1356251 -18.94140625 5.61328125 C-13.04982961 -0.33841352 -8.02719228 -0.11454104 0 0 Z " fill="#ffffff" transform="translate(170.64453125,60.70703125)"/>
<path d="M0 0 C0 10.56 0 21.12 0 32 C-1.98 31.67 -3.96 31.34 -6 31 C-20.38564125 29.82058239 -32.53924796 31.57905153 -44 41 C-52.04392522 48.44754017 -57.5687385 57.86651055 -58.23828125 68.94140625 C-58.58255781 83.24749285 -55.98904248 94.37120998 -46 105.16015625 C-38.96198837 111.88397093 -29.83703948 117.11665679 -19.8828125 117.1328125 C-18.72458984 117.13474609 -18.72458984 117.13474609 -17.54296875 117.13671875 C-16.34607422 117.13091797 -16.34607422 117.13091797 -15.125 117.125 C-14.33480469 117.12886719 -13.54460937 117.13273437 -12.73046875 117.13671875 C-11.56837891 117.13478516 -11.56837891 117.13478516 -10.3828125 117.1328125 C-9.68559082 117.13168457 -8.98836914 117.13055664 -8.27001953 117.12939453 C-5.49226819 116.97105852 -2.74440473 116.45740079 0 116 C0 126.56 0 137.12 0 148 C-15.87625426 153.29208475 -35.65232545 148.3091409 -50.1875 141.4375 C-58.00863535 137.48831641 -63.95261507 132.26465624 -70 126 C-70.73734375 125.29359375 -71.4746875 124.5871875 -72.234375 123.859375 C-78.67733415 117.31652501 -82.42370986 109.34811838 -86 101 C-86.45890625 99.93394531 -86.9178125 98.86789062 -87.390625 97.76953125 C-92.79544641 82.44952691 -92.39324586 61.92361072 -86 47 C-85.73687012 46.36449219 -85.47374023 45.72898438 -85.20263672 45.07421875 C-80.79743471 34.6433386 -75.11297057 26.83159587 -67 19 C-66.29359375 18.26265625 -65.5871875 17.5253125 -64.859375 16.765625 C-49.64721086 1.78570764 -20.61199232 -6.87066411 0 0 Z " fill="#ffffff" transform="translate(210,182)"/>
<path d="M0 0 C7.87530019 6.7502573 7.87530019 6.7502573 10.68907166 9.56208801 C11.32975586 10.19995239 11.97044006 10.83781677 12.63053894 11.49501038 C13.3066774 12.17317307 13.98281586 12.85133575 14.67944336 13.55004883 C15.77825333 14.64623032 15.77825333 14.64623032 16.89926147 15.76455688 C19.29862905 18.15955389 21.69435702 20.55815309 24.08984375 22.95703125 C25.76121146 24.62772498 27.43272755 26.29827026 29.10438538 27.96867371 C32.59506218 31.45788042 36.08393394 34.94887934 39.5715332 38.44116211 C44.05301282 42.9283652 48.53900231 47.41102867 53.02632809 51.89238453 C56.47234836 55.3348032 59.91599814 58.77958523 63.35891914 62.22510338 C65.01328589 63.88013914 66.66840109 65.53442707 68.32426262 67.1879673 C70.62736824 69.48855014 72.9272726 71.79228483 75.22631836 74.09692383 C75.91662643 74.78520767 76.60693451 75.47349152 77.31816101 76.18263245 C77.93910645 76.80639771 78.56005188 77.43016296 79.19981384 78.0728302 C79.7437979 78.61719129 80.28778196 79.16155237 80.84825039 79.72240925 C82 81 82 81 82 82 C54.94 82 27.88 82 0 82 C0 54.94 0 27.88 0 0 Z " fill="#ffffff" transform="translate(422,69)"/>
<path d="M0 0 C4.61581142 2.18643699 6.72864085 4.49599804 9 9 C9.82885269 14.54808604 9.7240695 19.47140883 7.3125 24.5625 C4.21064779 27.8320199 1.61649202 29.75850523 -2.90234375 30.43359375 C-9.05071801 30.44150672 -13.31314296 30.4465054 -18 26 C-21.88937897 20.55860924 -21.79042609 15.48149391 -21 9 C-16.63929544 -0.20593186 -9.3488659 -1.1401056 0 0 Z " fill="#ffffff" transform="translate(201,241)"/>
</svg>
