<svg id="svg" version="1.1" xmlns="http://www.w3.org/2000/svg" xmlns:xlink="http://www.w3.org/1999/xlink" width="400" height="400" viewBox="0, 0, 400,400"><g id="svgg"><path id="path0" d="M63.400 53.200 C 63.536 53.420,63.277 53.600,62.824 53.600 C 62.371 53.600,62.000 53.780,62.000 54.000 C 62.000 54.220,61.807 54.400,61.571 54.400 C 60.674 54.400,58.864 57.030,59.024 58.100 C 59.082 58.485,58.965 58.800,58.765 58.800 C 58.564 58.800,58.400 59.419,58.400 60.176 C 58.400 60.933,58.220 61.664,58.000 61.800 C 57.780 61.936,57.600 62.667,57.600 63.424 C 57.600 64.181,57.420 64.800,57.200 64.800 C 56.980 64.800,56.800 65.239,56.800 65.776 C 56.800 66.313,56.620 66.864,56.400 67.000 C 56.180 67.136,56.000 67.766,56.000 68.400 C 56.000 69.034,55.820 69.664,55.600 69.800 C 55.380 69.936,55.200 70.577,55.200 71.224 C 55.200 71.871,55.057 72.400,54.882 72.400 C 54.707 72.400,54.519 73.075,54.464 73.900 C 54.410 74.725,54.193 75.460,53.982 75.533 C 53.772 75.607,53.600 76.192,53.600 76.833 C 53.600 77.475,53.420 78.000,53.200 78.000 C 52.980 78.000,52.834 78.135,52.876 78.300 C 53.097 79.171,52.224 81.223,51.279 82.053 C 50.075 83.110,46.413 85.055,45.919 84.900 C 45.743 84.845,45.600 84.980,45.600 85.200 C 45.600 85.420,45.240 85.600,44.800 85.600 C 44.360 85.600,44.000 85.780,44.000 86.000 C 44.000 86.220,43.730 86.400,43.400 86.400 C 43.070 86.400,42.800 86.610,42.800 86.867 C 42.800 87.123,42.690 87.224,42.556 87.089 C 42.422 86.955,41.673 87.188,40.892 87.607 C 40.111 88.025,39.293 88.257,39.074 88.122 C 38.851 87.984,38.801 88.079,38.962 88.338 C 39.137 88.622,38.968 88.803,38.524 88.809 C 38.126 88.814,37.350 89.170,36.800 89.600 C 36.250 90.030,35.611 90.386,35.380 90.391 C 34.708 90.405,32.807 91.371,32.803 91.700 C 32.801 91.865,32.446 92.000,32.012 92.000 C 29.974 92.000,26.609 94.739,25.940 96.943 C 25.260 99.184,26.172 104.000,27.277 104.000 C 27.455 104.000,27.600 104.270,27.600 104.600 C 27.600 104.930,27.755 105.200,27.945 105.200 C 28.135 105.200,28.729 105.638,29.264 106.173 C 29.799 106.708,30.496 107.203,30.814 107.273 C 31.132 107.343,31.871 107.895,32.457 108.500 C 33.042 109.105,33.809 109.600,34.160 109.600 C 34.512 109.600,34.800 109.780,34.800 110.000 C 34.800 110.220,35.081 110.400,35.424 110.400 C 35.767 110.400,35.936 110.580,35.800 110.800 C 35.664 111.020,35.814 111.200,36.134 111.200 C 36.454 111.200,37.293 111.740,38.000 112.400 C 38.707 113.060,39.447 113.600,39.646 113.600 C 39.845 113.600,40.572 114.140,41.263 114.800 C 41.954 115.460,42.773 116.000,43.083 116.000 C 43.393 116.000,43.536 116.180,43.400 116.400 C 43.264 116.620,43.367 116.800,43.629 116.800 C 43.892 116.800,44.397 117.134,44.753 117.543 C 45.109 117.951,45.805 118.413,46.300 118.570 C 46.795 118.726,47.200 119.046,47.200 119.280 C 47.200 119.514,47.532 119.997,47.937 120.353 C 49.128 121.398,49.611 122.641,49.659 124.787 C 49.684 125.894,49.861 126.800,50.052 126.800 C 50.244 126.800,50.400 128.024,50.400 129.520 C 50.400 131.016,50.566 132.411,50.769 132.620 C 51.122 132.984,51.355 135.092,51.838 142.300 C 51.959 144.115,52.226 145.600,52.429 145.600 C 52.633 145.600,52.800 146.230,52.800 147.000 C 52.800 147.770,52.980 148.400,53.200 148.400 C 53.420 148.400,53.600 148.806,53.600 149.302 C 53.600 149.921,53.978 150.372,54.802 150.737 C 55.464 151.030,55.903 151.434,55.779 151.635 C 55.654 151.836,55.913 152.000,56.353 152.000 C 56.793 152.000,57.258 152.170,57.386 152.377 C 57.743 152.955,61.651 152.794,62.896 152.151 C 63.503 151.836,64.000 151.682,64.000 151.808 C 64.000 151.934,64.416 151.623,64.924 151.118 C 65.432 150.613,66.437 149.750,67.158 149.200 C 67.879 148.650,68.711 147.975,69.006 147.700 C 69.301 147.425,69.692 147.200,69.875 147.200 C 70.058 147.200,70.432 146.840,70.707 146.400 C 70.982 145.960,71.486 145.600,71.827 145.600 C 72.168 145.600,72.336 145.420,72.200 145.200 C 72.064 144.980,72.233 144.800,72.576 144.800 C 72.919 144.800,73.200 144.620,73.200 144.400 C 73.200 144.180,73.380 144.000,73.600 144.000 C 73.819 144.000,74.741 143.280,75.648 142.400 C 76.555 141.520,77.500 140.794,77.748 140.787 C 78.362 140.769,80.000 139.370,80.000 138.863 C 80.000 138.456,81.529 137.770,82.100 137.921 C 82.265 137.964,82.400 137.820,82.400 137.600 C 82.400 137.380,82.904 137.200,83.520 137.200 C 84.136 137.200,84.856 136.984,85.120 136.720 C 85.409 136.431,85.600 136.405,85.600 136.654 C 85.600 136.882,86.346 137.098,87.258 137.134 C 88.170 137.170,89.115 137.343,89.358 137.520 C 89.601 137.697,90.430 137.895,91.200 137.961 C 91.970 138.027,92.690 138.197,92.800 138.340 C 93.060 138.678,93.669 138.793,95.593 138.868 C 96.497 138.904,97.065 139.095,96.927 139.319 C 96.781 139.554,97.210 139.631,98.012 139.513 C 98.741 139.406,99.776 139.546,100.313 139.825 C 100.849 140.103,101.748 140.248,102.309 140.146 C 102.870 140.044,103.458 140.170,103.615 140.425 C 103.773 140.680,104.419 140.917,105.051 140.952 C 105.683 140.986,106.380 141.115,106.600 141.239 C 107.949 141.994,112.650 140.916,114.022 139.536 C 115.689 137.861,116.950 131.200,115.600 131.200 C 115.380 131.200,115.200 130.559,115.200 129.776 C 115.200 128.929,115.038 128.453,114.800 128.600 C 114.567 128.744,114.400 128.337,114.400 127.624 C 114.400 126.951,114.220 126.400,114.000 126.400 C 113.780 126.400,113.600 125.860,113.600 125.200 C 113.600 124.540,113.420 124.000,113.200 124.000 C 112.980 124.000,112.800 123.676,112.800 123.280 C 112.800 122.884,112.609 122.369,112.375 122.135 C 112.141 121.901,111.934 121.151,111.914 120.469 C 111.895 119.786,111.726 119.322,111.540 119.437 C 111.353 119.553,111.200 119.107,111.200 118.447 C 111.200 117.787,111.020 117.136,110.800 117.000 C 110.580 116.864,110.400 116.213,110.400 115.553 C 110.400 114.855,110.233 114.456,110.000 114.600 C 109.780 114.736,109.577 114.477,109.550 114.024 C 109.522 113.571,109.462 113.065,109.415 112.900 C 109.218 112.199,108.715 110.951,108.371 110.305 C 107.871 109.369,107.902 106.711,108.428 105.326 C 108.664 104.707,108.832 104.141,108.802 104.070 C 108.772 103.998,109.119 103.617,109.574 103.223 C 110.028 102.829,110.400 102.319,110.400 102.091 C 110.400 101.534,112.121 98.235,112.500 98.067 C 112.665 97.993,112.800 97.588,112.800 97.167 C 112.800 96.745,112.980 96.400,113.200 96.400 C 113.420 96.400,113.604 96.085,113.609 95.700 C 113.614 95.315,113.970 94.550,114.400 94.000 C 114.830 93.450,115.186 92.674,115.191 92.276 C 115.196 91.878,115.380 91.664,115.600 91.800 C 115.820 91.936,116.000 91.666,116.000 91.200 C 116.000 90.734,116.180 90.464,116.400 90.600 C 116.620 90.736,116.800 90.492,116.800 90.057 C 116.800 89.622,116.964 89.207,117.163 89.133 C 117.363 89.060,117.588 88.640,117.663 88.200 C 117.739 87.760,118.115 87.051,118.500 86.625 C 118.885 86.198,119.200 85.422,119.200 84.901 C 119.200 84.330,119.370 84.058,119.627 84.217 C 119.919 84.397,120.026 83.486,119.964 81.340 C 119.864 77.889,119.059 76.075,117.200 75.117 C 116.650 74.833,116.102 74.470,115.982 74.310 C 115.863 74.150,109.641 74.006,102.156 73.990 C 89.139 73.962,88.524 73.927,87.986 73.180 C 87.676 72.751,87.189 72.400,86.903 72.400 C 86.617 72.400,86.178 71.950,85.927 71.400 C 85.677 70.850,85.320 70.400,85.136 70.400 C 84.951 70.400,84.800 70.130,84.800 69.800 C 84.800 69.461,84.442 69.200,83.976 69.200 C 83.523 69.200,83.264 69.020,83.400 68.800 C 83.536 68.580,83.427 68.400,83.157 68.400 C 82.887 68.400,82.779 68.288,82.915 68.151 C 83.052 68.015,82.413 67.181,81.494 66.299 C 80.576 65.416,79.265 63.907,78.581 62.945 C 77.897 61.983,77.217 61.317,77.069 61.465 C 76.921 61.612,76.800 61.510,76.800 61.238 C 76.800 60.966,76.530 60.473,76.200 60.143 C 75.870 59.813,75.600 59.638,75.600 59.753 C 75.600 59.869,75.150 59.514,74.600 58.964 C 74.050 58.414,73.600 57.865,73.600 57.745 C 73.600 57.351,72.001 55.483,71.975 55.846 C 71.961 56.041,71.787 55.795,71.588 55.300 C 71.389 54.805,70.950 54.400,70.613 54.400 C 70.276 54.400,70.000 54.256,70.000 54.080 C 70.000 53.905,69.402 53.545,68.672 53.280 C 67.041 52.691,63.048 52.630,63.400 53.200 M332.000 53.115 C 332.000 53.288,331.625 53.458,331.166 53.493 C 330.708 53.527,330.014 53.922,329.626 54.370 C 329.237 54.819,328.795 55.062,328.644 54.910 C 328.492 54.759,328.265 55.030,328.139 55.513 C 328.012 55.996,327.750 56.292,327.555 56.172 C 327.233 55.973,327.032 56.537,327.153 57.300 C 327.179 57.465,326.900 57.600,326.533 57.600 C 326.167 57.600,325.982 57.715,326.123 57.856 C 326.264 57.997,325.304 59.132,323.989 60.379 C 322.675 61.625,321.600 62.774,321.600 62.931 C 321.600 63.088,320.361 64.473,318.847 66.008 C 317.332 67.544,316.190 68.800,316.308 68.800 C 316.426 68.800,316.107 69.160,315.600 69.600 C 315.093 70.040,314.823 70.400,315.000 70.400 C 315.177 70.400,314.907 70.760,314.400 71.200 C 313.893 71.640,313.608 72.000,313.767 72.000 C 313.927 72.000,313.787 72.270,313.457 72.600 C 313.127 72.930,312.495 73.200,312.052 73.200 C 311.609 73.200,311.136 73.380,311.000 73.600 C 310.843 73.853,305.996 74.000,297.776 74.000 C 287.665 74.000,284.799 74.110,284.794 74.500 C 284.790 74.833,284.658 74.800,284.400 74.400 C 284.187 74.070,284.009 73.981,284.006 74.202 C 284.003 74.424,283.460 74.844,282.800 75.136 C 282.140 75.428,281.600 75.839,281.600 76.050 C 281.600 76.261,281.265 76.793,280.856 77.232 C 280.009 78.141,279.559 84.720,280.378 84.213 C 280.615 84.067,280.800 84.271,280.799 84.676 C 280.798 85.474,282.423 88.921,282.900 89.133 C 283.065 89.207,283.200 89.532,283.200 89.857 C 283.200 90.182,283.343 90.359,283.517 90.251 C 283.691 90.144,283.860 90.399,283.891 90.819 C 283.923 91.238,284.500 92.383,285.174 93.363 C 285.849 94.343,286.400 95.427,286.400 95.772 C 286.400 96.117,286.580 96.400,286.800 96.400 C 287.020 96.400,287.200 96.745,287.200 97.167 C 287.200 97.588,287.335 97.993,287.500 98.067 C 287.879 98.235,289.600 101.534,289.600 102.091 C 289.600 102.319,289.988 102.842,290.461 103.253 C 290.935 103.664,291.200 104.000,291.051 104.000 C 290.902 104.000,291.054 104.531,291.390 105.180 C 292.070 106.496,292.198 109.240,291.629 110.305 C 291.128 111.244,290.709 112.433,290.539 113.400 C 290.405 114.164,289.918 115.392,289.153 116.895 C 288.959 117.277,288.800 117.952,288.800 118.395 C 288.800 118.838,288.575 119.203,288.300 119.206 C 287.967 119.210,288.000 119.342,288.400 119.600 C 288.800 119.858,288.833 119.990,288.500 119.994 C 288.225 119.997,288.000 120.450,288.000 121.000 C 288.000 121.550,287.820 122.000,287.600 122.000 C 287.380 122.000,287.200 122.450,287.200 123.000 C 287.200 123.550,287.020 124.000,286.800 124.000 C 286.580 124.000,286.421 124.135,286.447 124.300 C 286.617 125.372,286.337 126.808,286.000 126.600 C 285.766 126.455,285.600 126.870,285.600 127.600 C 285.600 128.330,285.434 128.745,285.200 128.600 C 284.962 128.453,284.800 128.929,284.800 129.776 C 284.800 130.559,284.620 131.200,284.400 131.200 C 283.820 131.200,283.904 136.646,284.500 137.667 C 285.168 138.812,287.209 140.792,287.759 140.831 C 288.002 140.847,288.560 140.961,289.000 141.083 C 290.155 141.402,292.932 141.501,293.400 141.239 C 293.620 141.115,294.317 140.986,294.949 140.952 C 295.581 140.917,296.227 140.680,296.385 140.425 C 296.542 140.170,297.130 140.044,297.691 140.146 C 298.252 140.248,299.151 140.103,299.687 139.825 C 300.224 139.546,301.259 139.406,301.988 139.513 C 302.790 139.631,303.219 139.554,303.073 139.319 C 302.935 139.095,303.503 138.904,304.407 138.868 C 306.331 138.793,306.940 138.678,307.200 138.340 C 307.310 138.197,308.030 138.027,308.800 137.961 C 309.570 137.895,310.389 137.705,310.619 137.539 C 310.850 137.372,311.750 137.193,312.619 137.140 C 313.489 137.088,314.332 136.855,314.494 136.622 C 314.688 136.344,314.790 136.370,314.794 136.700 C 314.798 137.004,315.350 137.200,316.200 137.200 C 316.970 137.200,317.600 137.380,317.600 137.600 C 317.600 137.820,317.735 137.964,317.900 137.921 C 318.471 137.770,320.000 138.456,320.000 138.863 C 320.000 139.354,321.629 140.768,322.216 140.787 C 322.445 140.794,323.428 141.520,324.400 142.400 C 325.372 143.280,326.323 144.000,326.513 144.000 C 327.041 144.000,327.994 145.073,327.714 145.352 C 327.578 145.489,327.887 145.600,328.400 145.600 C 328.913 145.600,329.222 145.711,329.086 145.848 C 328.832 146.101,329.737 147.200,330.200 147.200 C 330.341 147.200,330.695 147.425,330.987 147.700 C 331.278 147.975,332.097 148.650,332.806 149.200 C 333.515 149.750,334.516 150.605,335.029 151.100 C 335.543 151.595,336.242 152.000,336.582 152.000 C 336.922 152.000,337.200 152.155,337.200 152.344 C 337.200 152.533,338.451 152.719,339.979 152.758 C 342.763 152.828,343.126 152.694,345.016 150.900 C 345.306 150.625,345.746 150.400,345.995 150.400 C 346.244 150.400,346.345 150.235,346.220 150.032 C 346.095 149.830,346.264 149.393,346.596 149.061 C 346.928 148.729,347.200 147.844,347.200 147.095 C 347.200 146.346,347.325 145.608,347.478 145.455 C 347.852 145.081,347.954 144.290,348.040 141.111 C 348.079 139.632,348.267 138.518,348.456 138.635 C 348.645 138.752,348.800 137.577,348.800 136.024 C 348.800 134.408,348.971 133.200,349.200 133.200 C 349.433 133.200,349.600 131.875,349.600 130.024 C 349.600 128.277,349.780 126.736,350.000 126.600 C 350.220 126.464,350.400 125.373,350.400 124.176 C 350.400 122.979,350.580 122.000,350.800 122.000 C 351.020 122.000,351.200 121.730,351.200 121.400 C 351.200 121.070,351.380 120.800,351.600 120.800 C 351.820 120.800,352.000 120.519,352.000 120.176 C 352.000 119.833,352.167 119.656,352.371 119.782 C 352.575 119.908,352.857 119.649,352.998 119.206 C 353.139 118.763,353.562 118.400,353.939 118.400 C 354.315 118.400,354.883 118.040,355.200 117.600 C 355.517 117.160,355.964 116.800,356.192 116.800 C 356.421 116.800,356.832 116.440,357.107 116.000 C 357.382 115.560,357.836 115.200,358.115 115.200 C 358.395 115.200,358.883 114.840,359.200 114.400 C 359.517 113.960,360.025 113.600,360.328 113.600 C 360.631 113.600,361.383 113.060,362.000 112.400 C 362.617 111.740,363.365 111.200,363.664 111.200 C 363.963 111.200,364.432 110.840,364.707 110.400 C 364.982 109.960,365.576 109.600,366.027 109.600 C 366.478 109.600,366.736 109.420,366.600 109.200 C 366.464 108.980,366.614 108.800,366.934 108.800 C 367.253 108.800,367.618 108.530,367.745 108.200 C 367.871 107.870,368.251 107.600,368.587 107.600 C 368.924 107.600,369.200 107.432,369.200 107.227 C 369.200 107.022,369.569 106.737,370.020 106.594 C 370.984 106.288,373.200 104.211,373.200 103.613 C 373.200 103.386,373.374 103.200,373.587 103.200 C 373.801 103.200,373.871 102.930,373.745 102.600 C 373.618 102.270,373.714 102.000,373.957 102.000 C 374.232 102.000,374.400 101.082,374.400 99.576 C 374.400 98.229,374.239 97.252,374.037 97.377 C 373.838 97.500,373.751 97.286,373.843 96.901 C 374.164 95.568,369.994 92.000,368.115 92.000 C 367.832 92.000,367.600 91.820,367.600 91.600 C 367.600 91.380,367.240 91.200,366.800 91.200 C 366.360 91.200,366.000 91.020,366.000 90.800 C 366.000 90.580,365.550 90.400,365.000 90.400 C 364.450 90.400,364.000 90.220,364.000 90.000 C 364.000 89.780,363.730 89.600,363.400 89.600 C 363.070 89.600,362.800 89.420,362.800 89.200 C 362.800 88.980,362.564 88.800,362.275 88.800 C 361.691 88.800,358.313 87.244,358.000 86.831 C 357.890 86.685,357.035 86.320,356.100 86.019 C 355.165 85.718,354.400 85.321,354.400 85.136 C 354.400 84.951,354.040 84.800,353.600 84.800 C 353.160 84.800,352.800 84.620,352.800 84.400 C 352.800 84.180,352.528 84.000,352.195 84.000 C 350.754 84.000,348.528 82.200,347.743 80.400 C 347.407 79.630,346.968 78.687,346.766 78.305 C 346.565 77.923,346.400 77.169,346.400 76.629 C 346.400 76.089,346.220 75.536,346.000 75.400 C 345.780 75.264,345.600 74.533,345.600 73.776 C 345.600 73.019,345.420 72.400,345.200 72.400 C 344.980 72.400,344.800 71.888,344.800 71.261 C 344.800 70.635,344.518 69.558,344.173 68.867 C 343.829 68.176,343.659 67.428,343.797 67.205 C 343.935 66.982,343.857 66.800,343.624 66.800 C 343.391 66.800,343.200 66.249,343.200 65.576 C 343.200 64.903,343.065 64.436,342.900 64.538 C 342.735 64.639,342.548 63.975,342.485 63.061 C 342.421 62.148,342.196 61.340,341.985 61.267 C 341.773 61.193,341.600 60.608,341.600 59.967 C 341.600 59.325,341.443 58.800,341.252 58.800 C 341.061 58.800,340.905 58.485,340.907 58.100 C 340.912 56.676,340.789 56.359,340.338 56.638 C 340.045 56.820,339.985 56.747,340.175 56.440 C 340.527 55.871,338.311 53.600,337.404 53.600 C 337.072 53.600,336.800 53.420,336.800 53.200 C 336.800 52.978,335.733 52.800,334.400 52.800 C 333.080 52.800,332.000 52.942,332.000 53.115 M163.892 107.842 C 163.731 108.002,163.600 108.409,163.600 108.747 C 163.600 109.197,163.718 109.242,164.045 108.915 C 164.290 108.670,164.421 108.263,164.337 108.010 C 164.252 107.757,164.052 107.681,163.892 107.842 M149.160 227.663 C 150.467 228.318,151.328 229.196,152.505 231.073 C 154.190 233.761,155.086 234.631,153.562 232.100 C 151.403 228.512,150.473 227.602,148.400 227.048 C 147.850 226.901,148.192 227.177,149.160 227.663 M184.629 227.158 C 184.170 227.338,184.922 227.448,186.491 227.430 C 187.939 227.414,188.916 227.268,188.662 227.106 C 188.074 226.732,185.637 226.763,184.629 227.158 M211.400 227.200 C 210.381 227.638,211.432 227.638,212.800 227.200 C 213.604 226.943,213.643 226.877,213.000 226.868 C 212.560 226.862,211.840 227.011,211.400 227.200 M235.000 227.223 C 235.880 227.405,237.140 227.544,237.800 227.531 C 238.844 227.511,238.792 227.465,237.400 227.177 C 236.520 226.995,235.260 226.856,234.600 226.869 C 233.556 226.889,233.608 226.935,235.000 227.223 M189.600 227.711 C 189.600 227.787,190.185 228.278,190.900 228.801 C 191.704 229.390,191.984 229.487,191.633 229.055 C 191.100 228.399,189.600 227.407,189.600 227.711 M208.922 228.629 L 207.800 229.658 209.100 228.754 C 209.815 228.257,210.400 227.793,210.400 227.725 C 210.400 227.409,209.958 227.680,208.922 228.629 M240.000 227.982 C 240.330 228.205,240.945 228.391,241.367 228.394 C 242.390 228.402,242.071 228.173,240.600 227.844 C 239.724 227.648,239.562 227.685,240.000 227.982 M141.923 228.700 C 141.592 229.085,141.191 229.670,141.031 230.000 C 140.871 230.330,141.028 230.240,141.379 229.800 C 141.730 229.360,142.318 228.775,142.685 228.500 C 143.052 228.225,143.166 228.000,142.938 228.000 C 142.710 228.000,142.253 228.315,141.923 228.700 M180.814 230.516 C 178.807 233.611,178.205 234.647,178.672 234.200 C 179.313 233.588,182.449 228.715,182.298 228.565 C 182.225 228.492,181.558 229.370,180.814 230.516 M246.000 230.111 C 246.000 230.197,247.004 230.959,248.232 231.804 C 249.460 232.650,251.555 234.525,252.888 235.971 C 254.221 237.417,254.924 238.029,254.450 237.330 C 252.982 235.167,246.000 229.202,246.000 230.111 M140.252 231.700 C 139.923 232.929,139.950 234.502,140.310 235.069 C 140.474 235.327,140.623 234.472,140.641 233.169 C 140.676 230.577,140.615 230.346,140.252 231.700 M206.991 266.800 C 206.991 285.830,207.040 293.615,207.100 284.100 C 207.160 274.585,207.160 259.015,207.100 249.500 C 207.040 239.985,206.991 247.770,206.991 266.800 M177.386 236.100 L 176.752 237.400 177.567 236.400 C 178.352 235.437,178.608 234.800,178.210 234.800 C 178.106 234.800,177.735 235.385,177.386 236.100 M155.215 235.400 C 155.217 235.620,155.586 236.250,156.036 236.800 C 156.579 237.464,156.715 237.531,156.440 237.000 C 155.766 235.695,155.212 234.972,155.215 235.400 M190.214 239.435 C 189.841 240.004,189.605 240.538,189.689 240.622 C 189.773 240.707,190.158 240.241,190.544 239.588 C 191.406 238.128,191.148 238.009,190.214 239.435 M174.986 240.100 L 174.352 241.400 175.167 240.400 C 175.952 239.437,176.208 238.800,175.810 238.800 C 175.706 238.800,175.335 239.385,174.986 240.100 M219.782 240.103 C 219.676 240.380,219.636 246.545,219.694 253.803 L 219.800 267.000 227.400 267.018 L 235.000 267.037 227.600 266.818 L 220.200 266.600 220.095 253.278 L 219.989 239.955 228.357 240.078 C 232.959 240.145,236.641 240.065,236.539 239.900 C 236.194 239.344,219.998 239.541,219.782 240.103 M240.176 241.813 C 240.604 242.136,241.133 242.400,241.353 242.400 C 241.573 242.400,241.404 242.136,240.976 241.813 C 240.549 241.490,240.020 241.225,239.800 241.225 C 239.580 241.225,239.749 241.490,240.176 241.813 M144.525 242.484 C 144.895 243.080,146.380 245.555,147.826 247.984 C 149.272 250.413,150.540 252.400,150.644 252.400 C 150.980 252.400,145.031 242.472,144.293 241.800 C 144.051 241.580,144.156 241.888,144.525 242.484 M187.814 243.435 C 187.441 244.004,187.205 244.538,187.289 244.622 C 187.373 244.707,187.758 244.241,188.144 243.588 C 189.006 242.128,188.748 242.009,187.814 243.435 M172.586 244.100 L 171.952 245.400 172.767 244.400 C 173.552 243.437,173.808 242.800,173.410 242.800 C 173.306 242.800,172.935 243.385,172.586 244.100 M244.400 245.294 C 244.400 245.418,244.848 246.483,245.396 247.660 C 245.944 248.837,246.394 249.490,246.396 249.112 C 246.398 248.734,246.021 247.744,245.557 246.912 C 244.652 245.288,244.400 244.936,244.400 245.294 M162.150 247.000 C 162.474 247.660,163.031 248.560,163.389 249.000 C 163.997 249.748,164.001 249.722,163.450 248.600 C 163.126 247.940,162.569 247.040,162.211 246.600 C 161.603 245.852,161.599 245.878,162.150 247.000 M184.660 248.752 C 183.902 250.045,182.973 251.575,182.595 252.152 C 182.217 252.728,182.000 253.200,182.112 253.200 C 182.306 253.200,183.613 251.199,185.574 247.900 C 186.064 247.075,186.369 246.400,186.252 246.400 C 186.134 246.400,185.418 247.458,184.660 248.752 M170.186 248.100 L 169.552 249.400 170.367 248.400 C 171.152 247.437,171.408 246.800,171.010 246.800 C 170.906 246.800,170.535 247.385,170.186 248.100 M259.357 253.200 C 259.360 257.298,259.401 257.571,259.736 255.701 C 259.972 254.387,259.970 252.668,259.733 251.101 C 259.371 248.717,259.354 248.815,259.357 253.200 M168.179 251.400 C 167.075 253.283,166.215 253.684,165.820 252.500 C 165.692 252.115,165.212 251.350,164.754 250.800 C 163.987 249.880,163.993 249.928,164.822 251.400 C 166.283 253.994,166.686 254.307,167.372 253.382 C 168.266 252.176,169.676 249.600,169.442 249.600 C 169.328 249.600,168.759 250.410,168.179 251.400 M246.600 253.400 C 246.600 255.228,246.732 256.516,246.894 256.262 C 247.056 256.008,247.188 254.720,247.188 253.400 C 247.188 252.080,247.056 250.792,246.894 250.538 C 246.732 250.284,246.600 251.572,246.600 253.400 M151.324 253.800 C 151.662 254.460,152.238 255.360,152.604 255.800 C 152.970 256.240,152.865 255.880,152.370 255.000 C 151.280 253.058,150.464 252.122,151.324 253.800 M242.956 262.581 C 242.051 263.539,240.611 264.693,239.756 265.144 C 238.900 265.595,238.405 265.973,238.656 265.982 C 239.414 266.012,242.843 263.470,243.907 262.091 C 245.274 260.319,244.916 260.503,242.956 262.581 M174.576 265.646 C 174.068 266.629,174.036 266.988,174.425 267.346 C 174.796 267.688,174.849 267.679,174.642 267.312 C 174.491 267.043,174.649 266.278,174.994 265.612 C 175.339 264.945,175.531 264.400,175.421 264.400 C 175.311 264.400,174.931 264.961,174.576 265.646 M255.814 266.635 C 255.441 267.204,255.205 267.738,255.289 267.822 C 255.373 267.907,255.758 267.441,256.144 266.788 C 257.006 265.328,256.748 265.209,255.814 266.635 M236.200 266.400 C 235.093 266.682,235.077 266.709,236.000 266.747 C 236.550 266.769,237.270 266.613,237.600 266.400 C 238.281 265.960,237.929 265.960,236.200 266.400 M254.400 268.737 C 254.400 268.922,253.429 270.092,252.243 271.337 C 251.057 272.582,250.210 273.600,250.362 273.600 C 250.622 273.600,252.228 271.961,254.378 269.500 C 254.907 268.895,255.128 268.400,254.870 268.400 C 254.611 268.400,254.400 268.552,254.400 268.737 M73.356 273.324 C 72.892 273.806,71.939 274.650,71.238 275.200 C 70.537 275.750,69.522 276.613,68.982 277.118 C 68.442 277.623,68.000 277.947,68.000 277.837 C 68.000 277.728,67.109 278.530,66.019 279.619 C 64.930 280.709,63.931 281.600,63.801 281.600 C 63.670 281.600,62.174 282.995,60.475 284.700 C 57.381 287.807,57.142 288.000,56.400 288.000 C 56.180 288.000,56.000 288.258,56.000 288.573 C 56.000 288.888,55.637 289.261,55.194 289.402 C 54.751 289.543,54.492 289.825,54.618 290.029 C 54.744 290.233,54.644 290.400,54.395 290.400 C 53.811 290.400,52.800 291.411,52.800 291.995 C 52.800 292.244,52.632 292.344,52.427 292.217 C 52.222 292.090,51.772 292.390,51.427 292.882 C 51.082 293.375,50.800 293.642,50.800 293.475 C 50.800 293.309,50.300 293.684,49.689 294.309 C 49.077 294.935,48.256 295.570,47.863 295.720 C 47.471 295.871,47.241 296.143,47.353 296.324 C 47.465 296.505,47.026 296.966,46.378 297.349 C 45.730 297.732,45.200 298.200,45.200 298.389 C 45.200 298.578,44.102 299.557,42.760 300.566 C 41.419 301.575,40.564 302.405,40.860 302.412 C 41.174 302.419,41.067 302.617,40.605 302.885 C 39.505 303.523,39.063 303.898,36.585 306.300 C 35.393 307.455,34.223 308.400,33.985 308.400 C 33.747 308.400,33.647 308.553,33.763 308.740 C 33.878 308.927,33.529 309.317,32.986 309.607 C 32.444 309.898,32.000 310.295,32.000 310.491 C 32.000 310.687,31.808 310.728,31.573 310.583 C 31.338 310.438,31.049 310.692,30.930 311.147 C 30.811 311.601,30.390 312.076,29.994 312.202 C 29.599 312.327,28.472 313.233,27.490 314.215 C 26.509 315.197,25.491 316.000,25.229 316.000 C 24.967 316.000,24.832 316.135,24.929 316.300 C 25.027 316.465,24.658 316.960,24.111 317.400 C 23.564 317.840,22.370 318.922,21.458 319.805 C 20.546 320.688,19.222 321.821,18.515 322.322 C 17.808 322.823,16.532 323.901,15.679 324.717 C 12.285 327.963,10.160 329.882,9.354 330.427 C 8.888 330.742,8.438 331.180,8.354 331.400 C 8.269 331.620,8.091 331.764,7.957 331.719 C 7.824 331.675,7.488 332.125,7.211 332.719 C 6.933 333.314,6.548 334.113,6.353 334.495 C 5.615 335.947,6.328 340.800,7.280 340.800 C 7.456 340.800,7.602 341.115,7.605 341.500 C 7.610 342.171,9.947 344.000,10.800 344.000 C 11.203 344.000,11.700 344.210,13.495 345.138 C 13.987 345.392,14.662 345.600,14.995 345.600 C 15.328 345.600,15.600 345.780,15.600 346.000 C 15.600 346.220,16.050 346.400,16.600 346.400 C 17.150 346.400,17.600 346.580,17.600 346.800 C 17.600 347.020,17.962 347.200,18.405 347.200 C 18.848 347.200,19.523 347.359,19.905 347.553 C 20.287 347.748,21.095 348.108,21.700 348.353 C 22.305 348.599,23.295 349.001,23.900 349.247 C 24.505 349.492,25.313 349.852,25.695 350.047 C 26.077 350.241,26.752 350.400,27.195 350.400 C 27.638 350.400,28.000 350.580,28.000 350.800 C 28.000 351.020,28.360 351.200,28.800 351.200 C 29.240 351.200,29.600 351.380,29.600 351.600 C 29.600 351.820,30.050 352.000,30.600 352.000 C 31.150 352.000,31.600 352.180,31.600 352.400 C 31.600 352.620,32.039 352.800,32.576 352.800 C 33.113 352.800,33.664 352.980,33.800 353.200 C 33.936 353.420,34.397 353.600,34.824 353.600 C 35.251 353.600,35.600 353.801,35.600 354.047 C 35.600 354.292,35.920 354.410,36.312 354.307 C 36.703 354.205,37.250 354.364,37.528 354.661 C 37.805 354.957,38.339 355.203,38.716 355.206 C 40.187 355.220,42.258 357.723,42.649 359.960 C 42.703 360.268,42.894 360.628,43.073 360.760 C 43.253 360.892,43.459 361.538,43.530 362.195 C 43.602 362.852,43.782 363.482,43.930 363.595 C 44.079 363.708,44.218 364.250,44.239 364.800 C 44.290 366.105,44.751 368.020,45.224 368.895 C 45.431 369.277,45.600 370.132,45.600 370.795 C 45.600 371.458,45.780 372.000,46.000 372.000 C 46.220 372.000,46.400 372.529,46.400 373.176 C 46.400 373.823,46.580 374.464,46.800 374.600 C 47.020 374.736,47.200 375.341,47.200 375.944 C 47.200 376.547,47.365 377.211,47.567 377.420 C 47.769 377.629,48.035 378.340,48.160 379.000 C 48.710 381.927,48.881 382.648,49.202 383.400 C 49.796 384.789,50.391 386.960,50.482 388.071 C 50.530 388.660,50.712 389.055,50.885 388.948 C 51.058 388.840,51.200 389.134,51.200 389.600 C 51.200 390.066,51.380 390.336,51.600 390.200 C 51.820 390.064,52.000 390.179,52.000 390.455 C 52.000 391.329,54.112 393.200,55.098 393.200 C 55.629 393.200,55.938 393.376,55.800 393.600 C 55.646 393.850,56.463 394.000,57.976 394.000 C 59.325 394.000,60.400 393.823,60.400 393.600 C 60.400 393.380,60.632 393.200,60.915 393.200 C 61.198 393.200,62.053 392.667,62.815 392.016 C 63.577 391.365,64.425 390.825,64.700 390.816 C 64.975 390.807,65.200 390.530,65.200 390.200 C 65.200 389.870,65.335 389.642,65.500 389.693 C 65.807 389.788,67.342 388.617,68.149 387.672 C 68.397 387.381,68.938 386.841,69.350 386.472 C 69.763 386.102,70.520 385.395,71.032 384.900 C 71.544 384.405,72.075 384.000,72.210 384.000 C 72.665 384.000,73.565 382.898,73.314 382.648 C 73.178 382.511,73.273 382.400,73.525 382.400 C 73.777 382.400,75.239 381.140,76.772 379.600 C 78.306 378.060,79.744 376.800,79.967 376.800 C 80.189 376.800,80.565 376.440,80.800 376.000 C 81.035 375.560,81.477 375.200,81.781 375.200 C 82.085 375.200,82.393 375.065,82.467 374.900 C 82.540 374.735,83.262 374.032,84.071 373.338 C 84.880 372.643,85.428 371.961,85.288 371.822 C 85.149 371.682,85.432 371.464,85.917 371.337 C 86.403 371.211,86.800 370.847,86.800 370.530 C 86.800 370.212,86.980 370.064,87.200 370.200 C 87.420 370.336,87.600 370.246,87.600 370.000 C 87.600 369.754,87.767 369.656,87.971 369.782 C 88.175 369.908,88.457 369.649,88.598 369.206 C 88.739 368.763,88.977 368.400,89.127 368.400 C 89.278 368.400,90.430 367.455,91.687 366.300 C 92.945 365.145,94.709 363.570,95.609 362.800 C 97.154 361.477,100.140 358.756,102.433 356.580 C 103.002 356.041,103.655 355.600,103.884 355.600 C 104.114 355.600,104.549 355.295,104.851 354.923 C 105.319 354.347,105.317 354.297,104.838 354.585 C 104.454 354.817,104.368 354.776,104.566 354.455 C 104.725 354.198,105.008 354.081,105.194 354.196 C 105.579 354.435,108.470 351.209,108.307 350.723 C 108.248 350.549,105.758 347.930,102.774 344.903 C 92.725 334.713,85.980 324.602,81.623 313.200 C 80.908 311.330,80.181 309.440,80.005 309.000 C 79.505 307.743,78.344 303.950,77.954 302.300 C 77.759 301.475,77.418 300.035,77.195 299.100 C 75.825 293.345,75.257 288.384,74.954 279.500 C 74.820 275.595,74.596 272.411,74.455 272.424 C 74.315 272.438,73.820 272.843,73.356 273.324 M325.050 279.500 C 324.712 289.153,324.186 293.158,322.069 302.200 C 319.890 311.508,309.911 332.061,306.046 335.200 C 305.911 335.310,305.089 336.300,304.220 337.400 C 303.351 338.500,300.201 341.876,297.220 344.903 C 294.239 347.930,291.744 350.572,291.676 350.775 C 291.482 351.352,294.436 354.425,294.905 354.135 C 295.135 353.993,295.208 354.064,295.066 354.293 C 294.837 354.663,295.920 355.945,296.258 355.703 C 296.427 355.583,298.047 357.011,301.701 360.500 C 303.256 361.985,304.675 363.200,304.854 363.200 C 305.033 363.200,305.989 364.010,306.979 365.000 C 307.969 365.990,308.994 366.800,309.256 366.800 C 309.519 366.800,309.619 366.914,309.479 367.054 C 309.340 367.194,309.844 367.799,310.600 368.400 C 311.356 369.001,311.897 369.569,311.803 369.664 C 311.709 369.758,312.254 370.171,313.016 370.581 C 313.777 370.991,314.400 371.568,314.400 371.863 C 314.400 372.158,314.581 372.400,314.803 372.400 C 315.024 372.400,315.597 372.850,316.075 373.400 C 316.553 373.950,317.212 374.400,317.539 374.400 C 317.866 374.400,318.022 374.511,317.886 374.648 C 317.594 374.939,318.569 376.000,319.129 376.000 C 319.341 376.000,319.628 376.296,319.767 376.657 C 319.905 377.019,320.118 377.216,320.239 377.095 C 320.359 376.974,322.069 378.478,324.038 380.438 C 326.006 382.397,327.783 384.000,327.986 384.000 C 328.189 384.000,328.590 384.329,328.877 384.732 C 329.165 385.135,329.895 385.785,330.500 386.178 C 331.105 386.571,331.600 387.141,331.600 387.446 C 331.600 387.751,331.870 388.000,332.200 388.000 C 332.530 388.000,332.800 388.169,332.800 388.377 C 332.800 388.584,333.925 389.613,335.300 390.663 C 336.675 391.714,337.860 392.714,337.933 392.887 C 338.007 393.059,338.401 393.200,338.810 393.200 C 339.218 393.200,339.664 393.380,339.800 393.600 C 340.162 394.185,343.738 394.088,344.948 393.461 C 345.520 393.164,345.871 392.804,345.727 392.661 C 345.584 392.517,345.754 392.400,346.104 392.400 C 346.455 392.400,347.091 391.956,347.518 391.414 C 347.945 390.871,348.408 390.541,348.547 390.680 C 348.686 390.819,348.800 390.443,348.800 389.843 C 348.800 389.243,348.953 388.847,349.140 388.963 C 349.326 389.078,349.495 388.626,349.514 387.958 C 349.533 387.291,349.702 386.532,349.889 386.272 C 350.077 386.013,350.287 385.260,350.356 384.600 C 350.425 383.940,350.619 383.310,350.786 383.200 C 351.115 382.983,351.526 381.193,351.866 378.501 C 351.984 377.567,352.242 376.903,352.440 377.025 C 352.638 377.147,352.800 376.607,352.800 375.824 C 352.800 375.041,352.980 374.400,353.200 374.400 C 353.420 374.400,353.600 373.860,353.600 373.200 C 353.600 372.540,353.780 372.000,354.000 372.000 C 354.220 372.000,354.400 371.381,354.400 370.624 C 354.400 369.867,354.559 369.149,354.754 369.029 C 355.081 368.827,355.264 368.115,355.780 365.057 C 355.886 364.429,356.124 363.709,356.309 363.457 C 356.494 363.206,356.622 362.460,356.594 361.800 C 356.565 361.140,356.735 360.472,356.971 360.315 C 357.207 360.158,357.415 359.888,357.433 359.715 C 357.538 358.695,358.139 357.200,358.443 357.200 C 358.640 357.200,358.800 356.952,358.800 356.649 C 358.800 356.345,359.340 355.895,360.000 355.649 C 360.660 355.402,361.732 355.001,362.383 354.759 C 363.033 354.516,363.708 354.304,363.883 354.287 C 364.057 354.271,364.421 354.036,364.692 353.765 C 364.963 353.494,365.908 353.151,366.794 353.001 C 367.679 352.851,368.302 352.565,368.178 352.365 C 368.054 352.164,368.266 352.000,368.648 352.000 C 369.641 352.000,372.000 351.099,372.000 350.720 C 372.000 350.544,372.585 350.397,373.300 350.394 C 374.286 350.389,374.455 350.294,374.000 350.000 C 373.531 349.697,373.634 349.611,374.476 349.606 C 375.068 349.603,375.664 349.420,375.800 349.200 C 375.936 348.980,376.577 348.800,377.224 348.800 C 377.871 348.800,378.400 348.620,378.400 348.400 C 378.400 348.180,378.805 347.994,379.300 347.987 C 379.795 347.980,380.542 347.716,380.959 347.400 C 381.376 347.084,381.871 346.920,382.059 347.036 C 382.247 347.152,382.400 347.080,382.400 346.876 C 382.400 346.671,383.210 346.277,384.200 346.000 C 385.190 345.723,386.000 345.339,386.000 345.148 C 386.000 344.957,386.551 344.800,387.224 344.800 C 387.937 344.800,388.344 344.633,388.200 344.400 C 388.062 344.176,388.371 344.000,388.901 344.000 C 389.422 344.000,390.236 343.640,390.708 343.200 C 391.180 342.760,391.754 342.400,391.983 342.400 C 392.212 342.400,392.404 342.085,392.409 341.700 C 392.414 341.315,392.770 340.550,393.200 340.000 C 394.040 338.926,394.357 334.800,393.600 334.800 C 393.380 334.800,393.194 334.395,393.187 333.900 C 393.173 332.880,392.255 331.478,391.860 331.873 C 391.717 332.016,391.600 331.913,391.600 331.643 C 391.600 331.373,391.416 331.267,391.190 331.406 C 390.965 331.545,390.806 331.511,390.837 331.330 C 390.978 330.520,390.767 329.973,390.400 330.200 C 390.180 330.336,390.000 330.269,390.000 330.051 C 390.000 329.832,389.637 329.539,389.194 329.398 C 388.751 329.257,388.492 328.975,388.618 328.771 C 388.744 328.567,388.685 328.400,388.487 328.400 C 388.289 328.400,387.381 327.668,386.468 326.774 C 385.556 325.879,384.623 325.262,384.395 325.403 C 384.167 325.544,384.030 325.421,384.090 325.130 C 384.151 324.838,383.962 324.649,383.670 324.710 C 383.379 324.770,383.255 324.635,383.394 324.410 C 383.533 324.184,383.446 324.000,383.200 324.000 C 382.954 324.000,382.864 323.820,383.000 323.600 C 383.216 323.250,383.051 323.170,382.190 323.210 C 382.075 323.215,380.729 321.951,379.200 320.400 C 377.671 318.849,376.325 317.585,376.210 317.590 C 376.094 317.596,376.006 317.504,376.014 317.386 C 376.040 317.004,374.870 316.000,374.400 316.000 C 373.786 316.000,372.774 314.959,373.086 314.648 C 373.222 314.511,373.003 314.400,372.600 314.400 C 372.197 314.400,371.976 314.290,372.111 314.156 C 372.423 313.843,368.764 310.426,368.100 310.411 C 367.825 310.405,367.600 310.130,367.600 309.800 C 367.600 309.470,367.359 309.200,367.064 309.200 C 366.769 309.200,365.052 307.760,363.249 306.000 C 361.446 304.240,359.662 302.797,359.285 302.794 C 358.817 302.790,358.752 302.691,359.080 302.483 C 359.400 302.279,359.165 302.003,358.378 301.654 C 357.727 301.366,357.297 300.966,357.421 300.765 C 357.546 300.564,357.356 300.400,357.000 300.400 C 356.644 300.400,356.464 300.220,356.600 300.000 C 356.736 299.780,356.556 299.600,356.200 299.600 C 355.844 299.600,355.664 299.420,355.800 299.200 C 355.936 298.980,355.881 298.800,355.678 298.800 C 355.475 298.800,354.429 297.945,353.354 296.900 C 352.279 295.855,350.788 294.550,350.040 294.000 C 349.292 293.450,347.717 292.055,346.540 290.900 C 345.363 289.745,344.286 288.800,344.146 288.800 C 344.006 288.800,343.495 288.395,343.010 287.900 C 340.554 285.393,336.752 282.000,336.400 282.000 C 336.180 282.000,336.000 281.730,336.000 281.400 C 336.000 280.831,335.488 280.607,334.600 280.786 C 334.380 280.830,334.315 280.752,334.455 280.612 C 334.595 280.472,334.055 279.745,333.255 278.997 C 332.455 278.249,330.741 276.639,329.446 275.419 C 328.152 274.198,326.847 273.200,326.546 273.200 C 326.246 273.200,326.000 273.020,326.000 272.800 C 326.000 272.580,325.842 272.400,325.650 272.400 C 325.457 272.400,325.187 275.595,325.050 279.500 M153.108 276.500 C 152.787 276.995,152.307 277.850,152.040 278.400 C 151.360 279.803,152.594 278.306,153.441 276.700 C 154.139 275.374,153.923 275.244,153.108 276.500 M181.815 279.900 C 183.156 281.985,183.600 282.577,183.600 282.280 C 183.600 281.896,181.555 278.800,181.301 278.800 C 181.195 278.800,181.426 279.295,181.815 279.900 M237.800 279.200 C 237.296 279.417,237.222 279.544,237.600 279.544 C 237.930 279.544,238.560 279.389,239.000 279.200 C 239.504 278.983,239.578 278.856,239.200 278.856 C 238.870 278.856,238.240 279.011,237.800 279.200 M148.626 284.016 C 147.180 286.445,145.695 288.920,145.325 289.516 C 144.956 290.112,144.851 290.420,145.093 290.200 C 145.831 289.528,151.780 279.600,151.444 279.600 C 151.340 279.600,150.072 281.587,148.626 284.016 M165.932 280.290 C 165.596 280.681,165.185 281.270,165.017 281.600 C 164.849 281.930,165.181 281.660,165.755 281.000 C 166.623 280.001,166.860 279.900,167.171 280.400 C 168.048 281.806,168.826 282.514,168.059 281.207 C 167.067 279.518,166.723 279.369,165.932 280.290 M219.807 280.100 C 219.714 280.375,219.585 285.542,219.519 291.582 C 219.454 297.622,219.514 302.032,219.653 301.382 C 219.792 300.732,219.927 295.670,219.953 290.133 C 219.989 282.490,220.120 280.018,220.500 279.865 C 220.892 279.707,220.889 279.656,220.487 279.632 C 220.206 279.614,219.899 279.825,219.807 280.100 M163.908 283.300 C 163.587 283.795,163.107 284.650,162.840 285.200 C 162.160 286.603,163.394 285.106,164.241 283.500 C 164.939 282.174,164.723 282.044,163.908 283.300 M169.386 283.900 C 169.735 284.615,170.106 285.200,170.210 285.200 C 170.608 285.200,170.352 284.563,169.567 283.600 L 168.752 282.600 169.386 283.900 M184.386 284.000 C 184.866 284.770,185.356 285.715,185.476 286.100 C 185.595 286.485,185.862 286.800,186.069 286.800 C 186.487 286.800,185.548 285.075,184.314 283.574 C 183.638 282.752,183.649 282.819,184.386 284.000 M161.414 287.435 C 161.041 288.004,160.827 288.561,160.939 288.672 C 161.050 288.783,161.429 288.318,161.781 287.637 C 162.559 286.133,162.344 286.015,161.414 287.435 M171.786 287.900 C 172.135 288.615,172.506 289.200,172.610 289.200 C 173.008 289.200,172.752 288.563,171.967 287.600 L 171.152 286.600 171.786 287.900 M186.415 287.400 C 186.417 287.620,186.786 288.250,187.236 288.800 C 187.779 289.464,187.915 289.531,187.640 289.000 C 186.966 287.695,186.412 286.972,186.415 287.400 M174.186 291.900 C 174.535 292.615,174.906 293.200,175.010 293.200 C 175.408 293.200,175.152 292.563,174.367 291.600 L 173.552 290.600 174.186 291.900 M188.815 291.400 C 188.817 291.620,189.186 292.250,189.636 292.800 C 190.179 293.464,190.315 293.531,190.040 293.000 C 189.366 291.695,188.812 290.972,188.815 291.400 M176.586 295.900 C 176.935 296.615,177.306 297.200,177.410 297.200 C 177.808 297.200,177.552 296.563,176.767 295.600 L 175.952 294.600 176.586 295.900 M140.252 298.500 C 139.923 299.729,139.950 301.302,140.310 301.869 C 140.474 302.127,140.623 301.272,140.641 299.969 C 140.676 297.377,140.615 297.146,140.252 298.500 M154.308 299.300 C 153.433 300.649,152.648 302.256,153.087 301.800 C 153.648 301.217,155.298 298.400,155.079 298.400 C 154.976 298.400,154.629 298.805,154.308 299.300 M178.760 299.400 C 179.434 300.705,179.988 301.428,179.985 301.000 C 179.983 300.780,179.614 300.150,179.164 299.600 C 178.621 298.936,178.485 298.869,178.760 299.400 M192.901 300.200 C 192.905 301.080,192.987 301.393,193.083 300.895 C 193.179 300.398,193.175 299.678,193.075 299.295 C 192.975 298.913,192.896 299.320,192.901 300.200 M180.240 302.000 C 180.815 303.243,182.465 305.206,183.316 305.662 C 183.875 305.961,183.682 305.633,182.789 304.768 C 182.013 304.015,181.059 302.950,180.670 302.400 C 180.281 301.850,180.088 301.670,180.240 302.000 M150.862 304.285 C 149.149 306.068,149.311 306.278,151.137 304.640 C 151.924 303.934,153.083 302.316,152.714 302.438 C 152.651 302.458,151.818 303.289,150.862 304.285 M191.100 304.094 C 190.276 304.996,189.667 305.800,189.747 305.880 C 189.959 306.092,192.800 303.188,192.800 302.760 C 192.800 302.247,192.761 302.278,191.100 304.094 M217.999 304.100 C 217.410 304.904,217.313 305.184,217.745 304.833 C 218.401 304.300,219.393 302.800,219.089 302.800 C 219.013 302.800,218.522 303.385,217.999 304.100 M208.598 304.337 C 209.034 304.852,209.753 305.459,210.196 305.686 C 211.045 306.121,210.921 305.987,209.003 304.394 C 207.848 303.435,207.834 303.433,208.598 304.337 M144.500 306.233 C 144.628 306.362,145.573 306.467,146.600 306.467 C 147.627 306.467,148.572 306.362,148.700 306.233 C 148.828 306.105,147.883 306.000,146.600 306.000 C 145.317 306.000,144.372 306.105,144.500 306.233 M185.413 306.425 C 186.114 306.629,187.126 306.628,187.813 306.423 C 188.812 306.125,188.619 306.069,186.600 306.070 C 184.563 306.072,184.383 306.125,185.413 306.425 M212.505 306.287 C 213.114 306.379,214.014 306.377,214.505 306.282 C 214.997 306.187,214.500 306.111,213.400 306.114 C 212.300 306.117,211.897 306.195,212.505 306.287 " stroke="none" fill="#7c7c7c" fill-rule="evenodd"></path><path id="path1" d="M194.709 175.359 C 188.997 178.463,187.106 179.385,178.768 183.134 C 161.846 190.744,136.595 197.031,117.014 198.510 C 115.638 198.614,115.183 199.610,114.412 204.200 C 113.873 207.415,113.453 209.689,112.567 214.200 C 112.221 215.960,111.772 218.345,111.569 219.500 C 111.366 220.655,111.020 222.590,110.800 223.800 C 110.580 225.010,110.220 226.990,110.000 228.200 C 109.780 229.410,109.430 231.345,109.222 232.500 C 109.014 233.655,108.197 238.110,107.405 242.400 C 105.817 251.006,105.557 252.427,103.982 261.100 C 103.753 262.365,103.395 264.300,103.189 265.400 C 97.523 295.526,112.481 326.052,138.800 338.076 C 141.921 339.502,144.047 340.428,149.200 342.604 C 156.256 345.585,159.724 347.078,162.312 348.246 C 163.473 348.771,164.504 349.200,164.602 349.200 C 164.700 349.200,165.959 349.740,167.400 350.400 C 168.841 351.060,170.101 351.600,170.200 351.600 C 170.299 351.600,171.559 352.140,173.000 352.800 C 174.441 353.460,175.707 354.000,175.814 354.000 C 175.921 354.000,176.772 354.352,177.704 354.782 C 183.637 357.518,199.373 364.000,200.083 364.000 C 200.766 364.000,212.564 359.136,223.600 354.304 C 224.590 353.870,225.985 353.265,226.700 352.958 C 229.407 351.796,230.841 351.183,232.100 350.647 C 232.815 350.342,234.253 349.712,235.296 349.247 C 236.338 348.781,237.278 348.400,237.384 348.400 C 237.490 348.400,238.527 347.967,239.688 347.438 C 240.850 346.909,245.490 344.915,250.000 343.006 C 266.098 336.193,270.198 333.730,277.937 326.224 C 284.104 320.243,287.925 315.013,291.398 307.800 C 297.885 294.329,299.661 280.423,296.814 265.400 C 296.606 264.300,296.255 262.410,296.035 261.200 C 295.815 259.990,294.626 253.510,293.393 246.800 C 292.161 240.090,290.983 233.655,290.776 232.500 C 290.569 231.345,290.220 229.410,290.000 228.200 C 289.780 226.990,289.420 225.010,289.200 223.800 C 288.786 221.521,288.182 218.313,287.582 215.200 C 287.391 214.210,287.047 212.365,286.818 211.100 C 286.588 209.835,286.220 207.810,286.000 206.600 C 285.780 205.390,285.431 203.418,285.224 202.219 C 284.653 198.904,284.264 198.400,282.286 198.403 C 278.360 198.409,263.319 196.055,255.200 194.164 C 245.482 191.900,230.549 187.275,227.505 185.585 C 227.123 185.373,226.633 185.200,226.415 185.200 C 226.198 185.200,224.891 184.692,223.510 184.070 C 222.130 183.449,220.370 182.690,219.600 182.383 C 217.496 181.545,206.158 175.899,203.262 174.248 C 200.008 172.392,200.221 172.364,194.709 175.359 M150.000 227.256 C 150.770 227.725,151.670 228.484,152.000 228.942 C 153.220 230.634,157.200 237.292,157.200 237.640 C 157.200 237.838,157.359 238.000,157.553 238.000 C 157.748 238.000,158.007 238.315,158.129 238.700 C 158.346 239.385,159.604 241.604,160.000 242.000 C 160.110 242.110,160.519 242.740,160.908 243.400 C 165.528 251.233,166.554 252.806,166.847 252.513 C 167.192 252.168,169.412 248.594,170.894 246.000 C 171.334 245.230,172.033 244.122,172.447 243.538 C 172.861 242.954,173.200 242.357,173.200 242.210 C 173.200 242.064,173.740 241.159,174.400 240.200 C 175.060 239.241,175.600 238.341,175.600 238.200 C 175.600 238.059,176.140 237.159,176.800 236.200 C 177.460 235.241,178.000 234.365,178.000 234.255 C 178.000 233.860,180.617 229.789,181.572 228.697 C 186.085 223.540,194.525 227.653,193.434 234.478 C 193.155 236.223,193.559 235.490,185.444 248.979 C 182.010 254.688,179.200 259.425,179.200 259.507 C 179.200 259.589,178.660 260.441,178.000 261.400 C 177.340 262.359,176.796 263.292,176.791 263.472 C 176.786 263.652,176.430 264.250,176.000 264.800 C 174.784 266.354,175.131 267.716,177.647 271.262 C 178.061 271.846,178.400 272.403,178.400 272.500 C 178.400 272.597,181.210 277.340,184.645 283.038 C 193.081 297.035,192.979 296.854,193.544 298.675 C 194.645 302.214,190.684 307.200,186.774 307.200 C 184.311 307.200,181.311 305.132,179.994 302.526 C 179.681 301.907,178.924 300.648,178.312 299.728 C 177.701 298.808,177.200 297.941,177.200 297.800 C 177.200 297.659,176.660 296.759,176.000 295.800 C 175.340 294.841,174.800 293.941,174.800 293.800 C 174.800 293.659,174.260 292.759,173.600 291.800 C 172.940 290.841,172.400 289.936,172.400 289.790 C 172.400 289.643,172.061 289.046,171.647 288.462 C 171.233 287.878,170.468 286.672,169.947 285.782 C 167.425 281.474,166.972 280.816,166.612 280.933 C 166.273 281.043,163.543 285.341,161.107 289.600 C 160.667 290.370,159.967 291.478,159.553 292.062 C 159.139 292.646,158.800 293.321,158.800 293.562 C 158.800 293.803,158.641 294.000,158.447 294.000 C 158.252 294.000,157.993 294.315,157.871 294.700 C 157.575 295.636,156.276 297.766,155.900 297.933 C 155.735 298.007,155.600 298.213,155.600 298.392 C 155.600 298.804,152.500 303.973,151.712 304.874 C 146.686 310.625,136.632 303.709,140.362 297.067 C 140.782 296.320,141.367 295.280,141.662 294.755 C 141.958 294.230,142.290 293.710,142.400 293.600 C 142.510 293.490,142.842 292.970,143.138 292.445 C 143.433 291.920,143.992 290.930,144.380 290.245 C 144.768 289.560,147.741 284.590,150.988 279.200 C 159.163 265.627,158.567 266.760,158.004 265.858 C 157.741 265.436,157.201 264.530,156.805 263.845 C 156.409 263.160,153.972 259.090,151.390 254.800 C 147.047 247.587,146.224 246.195,144.738 243.555 C 144.442 243.030,144.110 242.510,144.000 242.400 C 143.813 242.213,143.278 241.302,142.238 239.400 C 141.997 238.960,141.710 238.510,141.600 238.400 C 136.050 232.850,143.330 223.192,150.000 227.256 M238.694 226.847 C 239.742 227.093,240.913 227.453,241.295 227.647 C 241.677 227.841,242.166 228.000,242.383 228.000 C 244.399 228.000,250.982 232.476,253.751 235.730 C 257.086 239.649,258.760 243.254,260.023 249.231 C 260.635 252.125,260.021 260.493,259.158 261.026 C 258.961 261.148,258.800 261.578,258.800 261.983 C 258.800 264.546,253.563 271.821,249.490 274.917 C 244.106 279.009,240.347 280.007,229.300 280.278 L 220.400 280.495 220.400 290.799 C 220.400 303.639,219.839 305.330,215.114 306.724 C 211.781 307.707,207.302 305.210,206.663 302.012 C 206.223 299.813,206.357 232.769,206.805 231.158 C 207.290 229.413,208.166 228.350,210.011 227.270 C 211.655 226.307,234.932 225.964,238.694 226.847 M220.494 253.259 L 220.600 266.200 227.600 266.314 C 240.610 266.525,246.160 262.589,246.090 253.200 C 246.022 244.018,241.515 240.722,228.694 240.478 L 220.389 240.319 220.494 253.259 " stroke="none" fill="#c3c3c3" fill-rule="evenodd"></path><path id="path2" d="M25.293 99.600 C 25.293 100.370,25.375 100.685,25.476 100.300 C 25.576 99.915,25.576 99.285,25.476 98.900 C 25.375 98.515,25.293 98.830,25.293 99.600 M374.493 99.600 C 374.493 100.370,374.575 100.685,374.676 100.300 C 374.776 99.915,374.776 99.285,374.676 98.900 C 374.575 98.515,374.493 98.830,374.493 99.600 M144.600 227.327 C 140.803 228.727,139.450 233.151,141.628 237.045 C 143.182 239.824,143.408 240.208,143.600 240.400 C 143.710 240.510,144.062 241.050,144.382 241.600 C 144.702 242.150,146.997 245.988,149.482 250.129 C 151.967 254.270,154.000 257.825,154.000 258.029 C 154.000 258.233,154.159 258.400,154.353 258.400 C 154.548 258.400,154.807 258.715,154.929 259.100 C 155.146 259.785,156.404 262.004,156.800 262.400 C 157.047 262.647,157.962 264.234,158.700 265.694 C 159.221 266.725,158.729 268.471,157.600 269.600 C 157.204 269.996,155.946 272.215,155.729 272.900 C 155.607 273.285,155.348 273.600,155.153 273.600 C 154.959 273.600,154.800 273.778,154.800 273.995 C 154.800 274.212,152.766 277.767,150.280 281.895 C 147.794 286.023,145.499 289.850,145.180 290.400 C 144.861 290.950,144.510 291.490,144.400 291.600 C 144.213 291.787,143.678 292.698,142.638 294.600 C 142.397 295.040,142.110 295.490,141.999 295.600 C 139.724 297.868,140.333 303.342,143.061 305.130 C 147.462 308.014,150.463 306.119,155.622 297.200 C 155.940 296.650,156.290 296.110,156.400 296.000 C 156.510 295.890,156.797 295.440,157.038 295.000 C 158.078 293.098,158.613 292.187,158.800 292.000 C 158.910 291.890,159.242 291.370,159.538 290.845 C 159.833 290.320,160.400 289.312,160.797 288.605 C 163.923 283.040,166.223 279.600,166.817 279.600 C 167.097 279.600,170.400 284.625,170.400 285.051 C 170.400 285.164,170.940 286.041,171.600 287.000 C 172.260 287.959,172.800 288.859,172.800 289.000 C 172.800 289.141,173.340 290.041,174.000 291.000 C 174.660 291.959,175.200 292.859,175.200 293.000 C 175.200 293.141,175.740 294.041,176.400 295.000 C 177.060 295.959,177.600 296.859,177.600 297.000 C 177.600 297.141,178.101 298.008,178.712 298.928 C 179.324 299.848,180.089 301.135,180.412 301.788 C 183.672 308.376,192.819 307.114,192.791 300.080 C 192.785 298.435,192.564 297.522,192.000 296.800 C 191.570 296.250,191.214 295.575,191.209 295.300 C 191.204 295.025,191.041 294.800,190.847 294.800 C 190.652 294.800,190.393 294.485,190.271 294.100 C 190.054 293.415,188.796 291.196,188.400 290.800 C 188.004 290.404,186.746 288.185,186.529 287.500 C 186.407 287.115,186.148 286.800,185.953 286.800 C 185.759 286.800,185.600 286.634,185.600 286.432 C 185.600 286.230,184.643 284.475,183.472 282.532 C 182.302 280.589,180.553 277.650,179.585 276.000 C 178.617 274.350,177.729 272.910,177.612 272.800 C 177.496 272.690,177.175 272.195,176.900 271.700 C 176.625 271.205,176.175 270.395,175.900 269.900 C 175.625 269.405,175.310 268.910,175.200 268.800 C 173.912 267.512,174.282 264.918,176.000 263.200 C 176.110 263.090,176.516 262.460,176.903 261.800 C 178.093 259.770,182.025 253.186,184.268 249.468 C 185.441 247.525,186.400 245.770,186.400 245.568 C 186.400 245.366,186.559 245.200,186.753 245.200 C 186.948 245.200,187.207 244.885,187.329 244.500 C 187.546 243.815,188.804 241.596,189.200 241.200 C 189.310 241.090,189.625 240.595,189.900 240.100 C 190.175 239.605,190.625 238.795,190.900 238.300 C 191.175 237.805,191.490 237.310,191.600 237.200 C 196.064 232.736,189.225 224.882,183.529 227.931 C 182.714 228.367,178.400 234.338,178.400 235.030 C 178.400 235.154,177.860 236.041,177.200 237.000 C 176.540 237.959,176.000 238.859,176.000 239.000 C 176.000 239.141,175.460 240.041,174.800 241.000 C 174.140 241.959,173.600 242.859,173.600 243.000 C 173.600 243.141,173.087 244.008,172.459 244.928 C 171.832 245.848,171.247 246.785,171.159 247.011 C 170.597 248.464,166.969 253.990,166.648 253.883 C 166.247 253.749,163.344 249.231,161.582 246.000 C 161.042 245.010,160.510 244.110,160.400 244.000 C 160.004 243.604,158.746 241.385,158.529 240.700 C 158.407 240.315,158.148 240.000,157.953 240.000 C 157.759 240.000,157.600 239.807,157.600 239.572 C 157.600 239.337,157.060 238.359,156.400 237.400 C 155.740 236.441,155.200 235.560,155.200 235.442 C 155.200 235.324,154.227 233.719,153.037 231.876 C 150.172 227.435,147.792 226.151,144.600 227.327 M212.200 227.297 C 206.862 228.678,207.200 225.987,207.200 267.072 L 207.200 302.421 208.989 304.211 C 211.775 306.996,216.225 306.652,218.490 303.476 C 219.372 302.240,219.406 301.850,219.600 291.000 L 219.800 279.800 228.800 279.558 C 238.809 279.290,240.158 279.075,244.400 277.078 C 248.059 275.356,251.031 272.967,254.000 269.361 C 255.935 267.010,257.451 263.999,258.793 259.839 C 259.423 257.884,259.454 247.694,258.832 247.072 C 258.594 246.834,258.400 246.237,258.400 245.744 C 258.400 245.251,258.220 244.736,258.000 244.600 C 257.780 244.464,257.600 243.913,257.600 243.376 C 257.600 242.839,257.420 242.400,257.200 242.400 C 256.980 242.400,256.800 242.040,256.800 241.600 C 256.800 241.160,256.620 240.800,256.400 240.800 C 256.180 240.800,256.000 240.565,256.000 240.278 C 256.000 237.864,247.658 230.715,242.600 228.795 C 237.801 226.973,217.346 225.965,212.200 227.297 M236.600 240.000 C 236.736 240.220,237.191 240.400,237.611 240.400 C 242.930 240.400,248.971 251.164,246.749 256.681 C 243.262 265.342,240.356 266.956,228.200 266.982 L 219.800 267.000 219.694 253.803 C 219.636 246.545,219.676 240.380,219.782 240.103 C 220.026 239.467,236.210 239.368,236.600 240.000 M72.087 274.009 C 71.619 274.759,71.641 274.781,72.391 274.313 C 73.197 273.809,73.474 273.200,72.896 273.200 C 72.729 273.200,72.365 273.564,72.087 274.009 M32.400 309.532 C 31.494 310.415,31.483 310.464,32.278 310.051 C 32.760 309.801,33.273 309.405,33.418 309.171 C 33.910 308.375,33.402 308.555,32.400 309.532 " stroke="none" fill="#5c5c5c" fill-rule="evenodd"></path><path id="path3" d="M198.800 140.000 C 198.800 140.220,198.519 140.400,198.176 140.400 C 197.833 140.400,197.664 140.580,197.800 140.800 C 197.936 141.020,197.769 141.200,197.428 141.200 C 196.793 141.200,195.571 142.063,194.454 143.300 C 194.106 143.685,193.592 144.000,193.311 144.000 C 193.030 144.000,192.800 144.180,192.800 144.400 C 192.800 144.620,192.564 144.800,192.275 144.800 C 191.987 144.800,191.364 145.160,190.892 145.600 C 190.420 146.040,189.855 146.400,189.637 146.400 C 189.418 146.400,189.096 146.625,188.920 146.900 C 188.744 147.175,187.880 147.758,187.000 148.196 C 186.120 148.634,185.310 149.084,185.200 149.196 C 185.090 149.308,184.595 149.625,184.100 149.900 C 183.605 150.175,182.795 150.625,182.300 150.900 C 181.805 151.175,181.310 151.500,181.200 151.623 C 181.090 151.745,180.434 152.074,179.742 152.354 C 179.050 152.633,178.111 153.210,177.655 153.635 C 177.199 154.059,176.383 154.443,175.842 154.488 C 175.301 154.533,174.922 154.673,175.000 154.800 C 175.078 154.927,174.570 155.260,173.871 155.541 C 173.172 155.822,172.287 156.221,171.905 156.426 C 171.523 156.632,170.938 156.800,170.605 156.800 C 170.272 156.800,170.000 156.980,170.000 157.200 C 170.000 157.420,169.735 157.600,169.412 157.600 C 169.089 157.600,168.175 157.964,167.382 158.410 C 166.589 158.855,166.045 159.051,166.172 158.845 C 166.299 158.639,165.728 158.790,164.902 159.181 C 164.076 159.571,162.320 160.222,161.000 160.626 C 159.680 161.031,158.378 161.580,158.106 161.846 C 157.834 162.113,157.294 162.282,156.906 162.222 C 156.518 162.162,156.110 162.249,156.000 162.415 C 155.890 162.582,155.350 162.781,154.800 162.859 C 154.250 162.936,153.694 163.144,153.565 163.319 C 153.435 163.494,152.895 163.688,152.365 163.750 C 151.834 163.812,151.069 164.008,150.665 164.187 C 150.260 164.366,149.630 164.545,149.265 164.585 C 148.899 164.624,148.330 164.753,148.000 164.872 C 145.887 165.630,144.409 166.000,143.495 166.000 C 142.919 166.000,142.336 166.180,142.200 166.400 C 142.064 166.620,141.243 166.800,140.376 166.800 C 139.509 166.800,138.800 166.980,138.800 167.200 C 138.800 167.420,138.001 167.600,137.024 167.600 C 136.047 167.600,135.136 167.780,135.000 168.000 C 134.864 168.220,133.953 168.400,132.976 168.400 C 131.999 168.400,131.200 168.580,131.200 168.800 C 131.200 169.022,130.133 169.200,128.800 169.200 C 127.480 169.200,126.400 169.364,126.400 169.564 C 126.400 169.933,124.018 170.246,118.200 170.641 C 116.440 170.760,114.829 171.025,114.620 171.229 C 114.411 171.433,112.397 171.600,110.144 171.600 C 107.844 171.600,105.939 171.775,105.800 172.000 C 105.652 172.239,103.017 172.400,99.241 172.400 L 92.928 172.400 92.464 173.419 C 92.209 173.979,92.000 175.139,92.000 175.995 C 92.000 176.852,91.856 177.642,91.680 177.751 C 91.504 177.860,91.315 178.709,91.260 179.638 C 91.205 180.567,90.989 181.647,90.780 182.037 C 90.571 182.428,90.400 183.533,90.400 184.494 C 90.400 185.454,90.237 186.411,90.039 186.620 C 89.840 186.829,89.574 187.810,89.448 188.800 C 88.913 192.989,88.510 195.374,88.400 195.000 C 88.290 194.626,87.887 197.011,87.352 201.200 C 87.226 202.190,86.960 203.171,86.761 203.380 C 86.563 203.589,86.400 204.624,86.400 205.680 C 86.400 206.736,86.220 207.600,86.000 207.600 C 85.780 207.600,85.600 208.489,85.600 209.576 C 85.600 210.663,85.449 211.646,85.264 211.760 C 85.079 211.875,84.894 212.916,84.853 214.075 C 84.812 215.233,84.604 216.356,84.389 216.571 C 84.175 216.785,84.000 217.723,84.000 218.656 C 84.000 219.589,83.820 220.464,83.600 220.600 C 83.380 220.736,83.200 221.737,83.200 222.824 C 83.200 223.911,83.020 224.800,82.800 224.800 C 82.580 224.800,82.400 225.700,82.400 226.800 C 82.400 227.900,82.220 228.800,82.000 228.800 C 81.780 228.800,81.600 229.689,81.600 230.776 C 81.600 231.863,81.458 232.841,81.284 232.948 C 81.110 233.056,80.929 233.831,80.882 234.672 C 80.834 235.512,80.622 237.010,80.410 238.000 C 80.060 239.638,79.790 241.114,79.418 243.443 C 79.166 245.016,78.347 248.994,77.980 250.421 C 77.780 251.202,77.687 252.215,77.775 252.672 C 77.863 253.129,77.706 253.946,77.425 254.487 C 77.144 255.029,76.794 256.445,76.648 257.636 C 76.502 258.826,76.286 260.430,76.170 261.200 C 76.053 261.970,75.860 263.770,75.741 265.200 C 75.621 266.630,75.389 267.980,75.225 268.200 C 74.701 268.900,74.715 272.400,75.241 272.400 C 75.595 272.400,75.656 273.314,75.474 275.900 C 74.369 291.659,81.071 315.860,90.020 328.429 C 90.449 329.031,90.800 329.706,90.800 329.928 C 90.800 330.151,90.938 330.393,91.107 330.467 C 91.277 330.540,92.308 331.860,93.399 333.400 C 96.111 337.229,100.228 341.873,104.891 346.364 C 107.041 348.435,108.800 350.317,108.800 350.548 C 108.800 351.118,112.319 354.325,113.780 355.088 C 114.430 355.427,115.209 355.952,115.513 356.256 C 115.816 356.559,116.224 356.709,116.419 356.588 C 116.614 356.468,117.003 356.736,117.283 357.184 C 117.563 357.633,118.094 358.000,118.463 358.000 C 118.832 358.000,119.193 358.167,119.267 358.370 C 119.340 358.574,119.670 358.799,120.000 358.870 C 120.330 358.942,120.891 359.315,121.247 359.700 C 121.603 360.085,122.188 360.400,122.547 360.400 C 122.906 360.400,123.200 360.580,123.200 360.800 C 123.200 361.020,123.560 361.200,124.000 361.200 C 124.440 361.200,124.800 361.380,124.800 361.600 C 124.800 361.820,125.053 362.000,125.362 362.000 C 126.004 362.000,129.276 363.630,129.645 364.134 C 129.779 364.318,130.004 364.453,130.145 364.434 C 131.094 364.307,131.611 364.458,131.400 364.800 C 131.260 365.027,131.596 365.200,132.176 365.200 C 132.739 365.200,133.200 365.380,133.200 365.600 C 133.200 365.820,133.560 366.000,134.000 366.000 C 134.440 366.000,134.800 366.191,134.800 366.424 C 134.800 366.657,134.953 366.752,135.141 366.636 C 135.329 366.520,135.824 366.684,136.241 367.000 C 136.658 367.316,137.405 367.580,137.900 367.587 C 138.395 367.594,138.800 367.780,138.800 368.000 C 138.800 368.220,139.160 368.400,139.600 368.400 C 140.040 368.400,140.400 368.580,140.400 368.800 C 140.400 369.020,140.839 369.200,141.376 369.200 C 141.913 369.200,142.466 369.383,142.604 369.607 C 142.742 369.830,143.008 369.918,143.195 369.803 C 143.382 369.687,143.775 369.821,144.068 370.101 C 144.822 370.821,146.798 371.648,147.188 371.407 C 147.369 371.296,147.619 371.474,147.746 371.802 C 147.872 372.131,148.330 372.400,148.764 372.400 C 149.198 372.400,149.672 372.592,149.817 372.827 C 149.962 373.062,150.333 373.158,150.640 373.040 C 150.948 372.922,151.200 372.999,151.200 373.213 C 151.200 373.426,151.549 373.600,151.976 373.600 C 152.403 373.600,152.864 373.780,153.000 374.000 C 153.136 374.220,153.591 374.400,154.011 374.400 C 154.432 374.400,155.417 374.760,156.200 375.200 C 156.983 375.640,157.899 376.000,158.236 376.000 C 158.572 376.000,158.736 376.180,158.600 376.400 C 158.456 376.633,158.863 376.800,159.576 376.800 C 160.249 376.800,160.800 376.980,160.800 377.200 C 160.800 377.420,161.065 377.600,161.388 377.600 C 161.711 377.600,162.617 377.960,163.400 378.400 C 164.183 378.840,165.189 379.200,165.636 379.200 C 166.082 379.200,166.336 379.380,166.200 379.600 C 166.064 379.820,166.323 380.000,166.776 380.000 C 167.229 380.000,167.600 380.180,167.600 380.400 C 167.600 380.620,168.140 380.800,168.800 380.800 C 169.460 380.800,170.000 380.980,170.000 381.200 C 170.000 381.420,170.265 381.600,170.588 381.600 C 170.911 381.600,171.821 381.963,172.611 382.406 C 173.400 382.849,174.350 383.269,174.723 383.338 C 175.667 383.513,178.572 384.936,178.734 385.302 C 178.808 385.469,179.041 385.498,179.252 385.368 C 179.463 385.238,180.071 385.417,180.604 385.766 C 181.136 386.114,181.848 386.400,182.186 386.400 C 182.524 386.400,182.800 386.580,182.800 386.800 C 182.800 387.020,182.935 387.171,183.100 387.135 C 183.265 387.100,183.907 387.280,184.526 387.535 C 185.145 387.791,185.820 388.000,186.026 388.000 C 186.232 388.000,186.400 388.180,186.400 388.400 C 186.400 388.620,186.718 388.800,187.106 388.800 C 187.494 388.800,188.505 389.171,189.352 389.625 C 190.198 390.079,191.129 390.359,191.420 390.248 C 191.711 390.136,192.005 390.201,192.074 390.392 C 192.143 390.584,192.470 390.799,192.800 390.870 C 193.130 390.942,193.490 391.090,193.600 391.200 C 194.140 391.740,195.677 392.400,196.395 392.400 C 196.838 392.400,197.200 392.580,197.200 392.800 C 197.200 393.020,197.560 393.200,198.000 393.200 C 198.440 393.200,198.800 393.380,198.800 393.600 C 198.800 393.820,199.340 394.000,200.000 394.000 C 200.660 394.000,201.200 393.820,201.200 393.600 C 201.200 393.380,201.661 393.200,202.224 393.200 C 202.804 393.200,203.140 393.027,203.000 392.800 C 202.864 392.580,203.118 392.400,203.564 392.400 C 204.011 392.400,205.017 392.040,205.800 391.600 C 206.583 391.160,207.543 390.800,207.932 390.800 C 208.321 390.800,208.854 390.586,209.116 390.324 C 209.378 390.062,209.876 389.806,210.223 389.756 C 210.570 389.705,211.650 389.289,212.622 388.831 C 213.595 388.374,214.663 388.000,214.996 388.000 C 215.328 388.000,215.600 387.820,215.600 387.600 C 215.600 387.380,216.050 387.200,216.600 387.200 C 217.150 387.200,217.600 387.020,217.600 386.800 C 217.600 386.580,217.872 386.400,218.205 386.400 C 218.538 386.400,219.123 386.232,219.505 386.026 C 219.887 385.821,220.785 385.417,221.500 385.129 C 222.215 384.840,222.800 384.469,222.800 384.302 C 222.800 384.136,223.250 384.000,223.800 384.000 C 224.350 384.000,224.800 383.820,224.800 383.600 C 224.800 383.380,225.250 383.200,225.800 383.200 C 226.350 383.200,226.800 383.020,226.800 382.800 C 226.800 382.580,227.160 382.400,227.600 382.400 C 228.040 382.400,228.400 382.220,228.400 382.000 C 228.400 381.780,228.720 381.600,229.111 381.600 C 229.502 381.600,230.863 381.060,232.135 380.400 C 233.407 379.740,234.808 379.200,235.248 379.200 C 235.687 379.200,235.936 379.020,235.800 378.800 C 235.660 378.573,235.996 378.400,236.576 378.400 C 237.139 378.400,237.600 378.220,237.600 378.000 C 237.600 377.780,238.050 377.600,238.600 377.600 C 239.150 377.600,239.600 377.420,239.600 377.200 C 239.600 376.980,239.834 376.800,240.120 376.800 C 240.856 376.800,242.793 375.859,242.797 375.500 C 242.799 375.335,243.214 375.200,243.720 375.200 C 244.226 375.200,244.811 375.031,245.020 374.824 C 245.229 374.617,245.924 374.354,246.565 374.239 C 247.206 374.123,247.917 373.843,248.145 373.615 C 248.373 373.387,248.862 373.200,249.231 373.200 C 249.600 373.200,250.117 372.941,250.380 372.624 C 250.643 372.307,251.115 372.146,251.429 372.267 C 251.743 372.387,252.000 372.286,252.000 372.043 C 252.000 371.799,252.356 371.600,252.790 371.600 C 253.225 371.600,254.170 371.241,254.890 370.801 C 255.611 370.362,256.515 370.002,256.900 370.001 C 257.285 370.001,257.600 369.840,257.600 369.644 C 257.600 369.448,258.410 369.049,259.400 368.757 C 260.390 368.465,261.200 368.085,261.200 367.913 C 261.200 367.741,261.661 367.600,262.224 367.600 C 262.804 367.600,263.140 367.427,263.000 367.200 C 262.790 366.860,263.909 366.596,264.900 366.753 C 265.065 366.779,265.200 366.664,265.200 366.498 C 265.200 366.331,265.785 365.953,266.500 365.657 C 267.215 365.361,268.520 364.805,269.400 364.421 C 270.280 364.037,271.585 363.471,272.300 363.164 C 273.015 362.856,273.600 362.469,273.600 362.302 C 273.600 362.136,273.960 362.000,274.400 362.000 C 274.840 362.000,275.200 361.820,275.200 361.600 C 275.200 361.380,275.560 361.200,276.000 361.200 C 276.440 361.200,276.800 361.020,276.800 360.800 C 276.800 360.580,277.160 360.400,277.600 360.400 C 278.040 360.400,278.400 360.220,278.400 360.000 C 278.400 359.780,278.636 359.600,278.925 359.600 C 279.213 359.600,279.836 359.240,280.308 358.800 C 280.780 358.360,281.416 358.000,281.721 358.000 C 282.026 358.000,282.602 357.640,283.000 357.200 C 283.398 356.760,283.938 356.400,284.200 356.400 C 284.462 356.400,285.002 356.040,285.400 355.600 C 285.798 355.160,286.347 354.800,286.619 354.800 C 286.892 354.800,287.218 354.530,287.345 354.200 C 287.471 353.870,287.829 353.600,288.140 353.600 C 288.804 353.600,291.200 351.251,291.200 350.600 C 291.200 350.354,292.962 348.453,295.117 346.376 C 299.748 341.911,304.660 336.345,306.922 333.000 C 307.814 331.680,308.692 330.540,308.872 330.467 C 309.053 330.393,309.200 330.151,309.200 329.928 C 309.200 329.706,309.551 329.031,309.980 328.429 C 318.986 315.780,324.617 295.792,324.438 277.100 C 324.410 274.178,324.546 272.400,324.797 272.400 C 325.295 272.400,325.335 268.704,324.843 268.180 C 324.647 267.971,324.383 266.540,324.256 265.000 C 324.129 263.460,323.941 261.660,323.838 261.000 C 323.735 260.340,323.524 258.810,323.369 257.600 C 323.215 256.390,322.867 254.950,322.597 254.400 C 322.327 253.850,322.166 253.040,322.241 252.600 C 322.316 252.160,322.212 251.260,322.010 250.600 C 321.809 249.940,321.540 248.680,321.413 247.800 C 321.285 246.920,321.097 245.928,320.994 245.595 C 320.784 244.917,320.483 243.083,320.141 240.400 C 320.015 239.410,319.768 238.420,319.591 238.200 C 319.414 237.980,319.221 236.810,319.162 235.600 C 319.103 234.390,318.919 233.306,318.752 233.191 C 318.585 233.076,318.405 232.041,318.352 230.891 C 318.300 229.741,318.109 228.800,317.929 228.800 C 317.748 228.800,317.600 227.889,317.600 226.776 C 317.600 225.663,317.441 224.851,317.248 224.971 C 316.924 225.170,316.740 224.027,316.139 218.100 C 316.022 216.945,315.763 216.000,315.563 216.000 C 315.363 216.000,315.200 215.100,315.200 214.000 C 315.200 212.900,315.020 212.000,314.800 212.000 C 314.580 212.000,314.400 211.010,314.400 209.800 C 314.400 208.590,314.220 207.600,314.000 207.600 C 313.780 207.600,313.600 206.689,313.600 205.576 C 313.600 204.461,313.436 203.654,313.236 203.778 C 313.035 203.902,312.777 202.967,312.662 201.702 C 312.547 200.436,312.252 198.320,312.007 197.000 C 311.763 195.680,311.462 193.790,311.338 192.800 C 311.215 191.810,310.963 190.813,310.778 190.585 C 310.594 190.356,310.397 189.400,310.341 188.459 C 310.286 187.518,310.096 186.660,309.920 186.551 C 309.744 186.442,309.600 185.384,309.600 184.200 C 309.600 183.016,309.420 181.936,309.200 181.800 C 308.980 181.664,308.800 180.764,308.800 179.800 C 308.800 178.836,308.620 177.936,308.400 177.800 C 308.180 177.664,308.000 176.651,308.000 175.548 C 308.000 172.469,307.838 172.400,300.652 172.400 C 296.947 172.400,294.348 172.239,294.200 172.000 C 294.061 171.775,292.137 171.600,289.800 171.600 C 287.463 171.600,285.539 171.425,285.400 171.200 C 285.264 170.980,283.824 170.800,282.200 170.800 C 280.576 170.800,279.163 170.663,279.059 170.496 C 278.956 170.329,277.730 170.137,276.336 170.069 C 274.941 170.001,273.740 169.778,273.667 169.573 C 273.593 169.368,272.468 169.200,271.167 169.200 C 269.856 169.200,268.800 169.022,268.800 168.800 C 268.800 168.580,268.001 168.400,267.024 168.400 C 266.047 168.400,265.136 168.220,265.000 168.000 C 264.864 167.780,263.953 167.600,262.976 167.600 C 261.999 167.600,261.200 167.455,261.200 167.278 C 261.200 167.101,260.435 166.912,259.500 166.858 C 258.565 166.804,257.740 166.589,257.667 166.380 C 257.593 166.171,256.929 166.000,256.190 166.000 C 255.452 166.000,254.736 165.820,254.600 165.600 C 254.464 165.380,253.971 165.200,253.505 165.200 C 252.759 165.200,251.080 164.758,249.200 164.066 C 248.870 163.945,248.420 163.831,248.200 163.814 C 247.980 163.797,247.260 163.576,246.600 163.324 C 245.500 162.903,243.849 162.443,242.440 162.164 C 242.132 162.103,241.772 161.879,241.640 161.666 C 241.508 161.453,240.545 161.150,239.500 160.994 C 238.455 160.837,237.600 160.550,237.600 160.355 C 237.600 160.160,237.411 160.000,237.181 160.000 C 236.950 160.000,236.016 159.640,235.106 159.200 C 234.195 158.760,233.124 158.400,232.725 158.400 C 232.326 158.400,232.000 158.220,232.000 158.000 C 232.000 157.780,231.550 157.600,231.000 157.600 C 230.450 157.600,230.000 157.420,230.000 157.200 C 230.000 156.980,229.728 156.800,229.395 156.800 C 228.732 156.800,227.144 155.997,226.755 155.466 C 226.621 155.282,226.396 155.147,226.255 155.166 C 225.300 155.294,224.790 155.140,225.006 154.790 C 225.145 154.565,225.111 154.406,224.930 154.437 C 224.022 154.595,223.181 154.355,223.400 154.000 C 223.536 153.780,223.277 153.600,222.824 153.600 C 222.371 153.600,222.000 153.442,222.000 153.250 C 222.000 153.058,221.482 152.796,220.848 152.670 C 220.215 152.543,219.418 152.160,219.077 151.820 C 218.736 151.479,218.264 151.200,218.029 151.200 C 217.793 151.200,217.600 151.020,217.600 150.800 C 217.600 150.580,217.240 150.400,216.800 150.400 C 216.360 150.400,216.000 150.265,216.000 150.099 C 216.000 149.934,215.145 149.354,214.100 148.810 C 213.055 148.266,211.909 147.502,211.553 147.111 C 211.197 146.720,210.686 146.400,210.416 146.400 C 210.147 146.400,209.514 146.085,209.009 145.700 C 208.505 145.315,207.695 144.730,207.209 144.400 C 206.723 144.070,205.961 143.490,205.515 143.112 C 205.070 142.733,204.364 142.315,203.947 142.183 C 203.530 142.051,203.292 141.775,203.418 141.571 C 203.544 141.367,203.401 141.200,203.099 141.200 C 202.798 141.200,202.164 140.840,201.692 140.400 C 200.804 139.572,198.800 139.295,198.800 140.000 M203.262 174.248 C 206.158 175.899,217.496 181.545,219.600 182.383 C 220.370 182.690,222.130 183.449,223.510 184.070 C 224.891 184.692,226.198 185.200,226.415 185.200 C 226.633 185.200,227.123 185.373,227.505 185.585 C 230.549 187.275,245.482 191.900,255.200 194.164 C 263.319 196.055,278.360 198.409,282.286 198.403 C 284.264 198.400,284.653 198.904,285.224 202.219 C 285.431 203.418,285.780 205.390,286.000 206.600 C 286.220 207.810,286.588 209.835,286.818 211.100 C 287.047 212.365,287.391 214.210,287.582 215.200 C 288.182 218.313,288.786 221.521,289.200 223.800 C 289.420 225.010,289.780 226.990,290.000 228.200 C 290.220 229.410,290.569 231.345,290.776 232.500 C 290.983 233.655,292.161 240.090,293.393 246.800 C 294.626 253.510,295.815 259.990,296.035 261.200 C 296.255 262.410,296.606 264.300,296.814 265.400 C 301.177 288.421,294.401 310.257,277.937 326.224 C 270.198 333.730,266.098 336.193,250.000 343.006 C 245.490 344.915,240.850 346.909,239.688 347.438 C 238.527 347.967,237.490 348.400,237.384 348.400 C 237.278 348.400,236.338 348.781,235.296 349.247 C 234.253 349.712,232.815 350.342,232.100 350.647 C 230.841 351.183,229.407 351.796,226.700 352.958 C 225.985 353.265,224.590 353.870,223.600 354.304 C 212.564 359.136,200.766 364.000,200.083 364.000 C 199.373 364.000,183.637 357.518,177.704 354.782 C 176.772 354.352,175.921 354.000,175.814 354.000 C 175.707 354.000,174.441 353.460,173.000 352.800 C 171.559 352.140,170.299 351.600,170.200 351.600 C 170.101 351.600,168.841 351.060,167.400 350.400 C 165.959 349.740,164.700 349.200,164.602 349.200 C 164.504 349.200,163.473 348.771,162.312 348.246 C 159.724 347.078,156.256 345.585,149.200 342.604 C 144.047 340.428,141.921 339.502,138.800 338.076 C 112.481 326.052,97.523 295.526,103.189 265.400 C 103.395 264.300,103.753 262.365,103.982 261.100 C 105.557 252.427,105.817 251.006,107.405 242.400 C 108.197 238.110,109.014 233.655,109.222 232.500 C 109.430 231.345,109.780 229.410,110.000 228.200 C 110.220 226.990,110.580 225.010,110.800 223.800 C 111.020 222.590,111.366 220.655,111.569 219.500 C 111.772 218.345,112.221 215.960,112.567 214.200 C 113.453 209.689,113.873 207.415,114.412 204.200 C 115.183 199.610,115.638 198.614,117.014 198.510 C 136.595 197.031,161.846 190.744,178.768 183.134 C 187.106 179.385,188.997 178.463,194.709 175.359 C 200.221 172.364,200.008 172.392,203.262 174.248 M143.800 226.800 C 143.508 227.273,143.899 227.273,145.000 226.800 C 145.771 226.469,145.769 226.455,144.924 226.428 C 144.442 226.413,143.936 226.580,143.800 226.800 M184.261 226.700 C 184.159 226.865,185.211 227.000,186.598 227.000 C 187.986 227.000,189.038 226.865,188.937 226.700 C 188.836 226.535,187.784 226.400,186.600 226.400 C 185.416 226.400,184.364 226.535,184.261 226.700 M211.052 226.716 C 210.944 226.890,211.473 226.961,212.228 226.873 C 212.983 226.785,213.600 226.642,213.600 226.556 C 213.600 226.255,211.245 226.403,211.052 226.716 M233.233 226.544 C 233.325 226.623,234.660 226.789,236.200 226.913 C 237.892 227.049,238.684 227.003,238.200 226.797 C 237.439 226.473,232.883 226.241,233.233 226.544 M141.631 228.431 C 140.954 229.108,140.400 229.858,140.400 230.097 C 140.400 230.337,140.445 230.456,140.500 230.362 C 140.555 230.268,141.220 229.518,141.978 228.696 C 143.636 226.897,143.369 226.693,141.631 228.431 M181.970 228.300 L 181.000 229.400 182.200 228.400 C 182.860 227.850,183.475 227.355,183.567 227.300 C 183.658 227.245,183.555 227.200,183.336 227.200 C 183.118 227.200,182.503 227.695,181.970 228.300 M190.967 228.425 C 191.734 229.098,192.477 230.012,192.617 230.455 C 192.758 230.898,192.961 231.172,193.069 231.064 C 193.577 230.556,190.814 227.202,189.886 227.200 C 189.713 227.200,190.200 227.751,190.967 228.425 M208.763 228.100 C 207.648 229.067,206.611 230.745,206.931 231.064 C 207.039 231.172,207.242 230.898,207.383 230.455 C 207.523 230.012,208.266 229.098,209.033 228.425 C 209.800 227.751,210.287 227.200,210.114 227.200 C 209.941 227.201,209.333 227.606,208.763 228.100 M240.200 227.600 C 241.301 228.073,241.692 228.073,241.400 227.600 C 241.264 227.380,240.758 227.213,240.276 227.228 C 239.431 227.255,239.429 227.269,240.200 227.600 M180.073 230.600 C 179.822 231.150,179.683 231.600,179.763 231.600 C 179.843 231.600,180.203 231.150,180.563 230.600 C 180.924 230.050,181.063 229.600,180.873 229.600 C 180.684 229.600,180.323 230.050,180.073 230.600 M246.033 229.763 C 246.580 230.296,250.383 232.695,250.191 232.386 C 249.897 231.910,246.555 229.600,246.161 229.600 C 245.999 229.600,245.942 229.673,246.033 229.763 M139.867 231.067 C 139.500 231.433,139.529 235.109,139.900 235.338 C 140.065 235.440,140.200 234.461,140.200 233.162 C 140.200 231.863,140.185 230.800,140.167 230.800 C 140.148 230.800,140.013 230.920,139.867 231.067 M178.614 233.035 C 178.241 233.604,178.027 234.161,178.139 234.272 C 178.250 234.383,178.629 233.918,178.981 233.237 C 179.759 231.733,179.544 231.615,178.614 233.035 M193.301 233.400 C 193.305 234.280,193.387 234.593,193.483 234.095 C 193.579 233.598,193.575 232.878,193.475 232.495 C 193.375 232.113,193.296 232.520,193.301 233.400 M206.591 266.800 C 206.591 286.050,206.640 293.925,206.700 284.300 C 206.760 274.675,206.760 258.925,206.700 249.300 C 206.640 239.675,206.591 247.550,206.591 266.800 M154.600 233.600 C 154.941 234.260,155.311 234.800,155.421 234.800 C 155.531 234.800,155.341 234.260,155.000 233.600 C 154.659 232.940,154.289 232.400,154.179 232.400 C 154.069 232.400,154.259 232.940,154.600 233.600 M250.800 232.879 C 250.800 233.217,253.676 236.058,253.846 235.887 C 253.923 235.811,253.269 235.048,252.393 234.193 C 251.517 233.337,250.800 232.746,250.800 232.879 M176.214 237.035 C 175.841 237.604,175.605 238.138,175.689 238.222 C 175.773 238.307,176.158 237.841,176.544 237.188 C 177.406 235.728,177.148 235.609,176.214 237.035 M255.053 238.008 C 255.638 238.893,256.206 239.528,256.314 239.419 C 256.514 239.219,254.515 236.400,254.174 236.400 C 254.072 236.400,254.468 237.124,255.053 238.008 M191.386 238.500 L 190.752 239.800 191.567 238.800 C 192.352 237.837,192.608 237.200,192.210 237.200 C 192.106 237.200,191.735 237.785,191.386 238.500 M173.814 241.035 C 173.441 241.604,173.205 242.138,173.289 242.222 C 173.373 242.307,173.758 241.841,174.144 241.188 C 175.006 239.728,174.748 239.609,173.814 241.035 M220.267 240.267 C 219.897 240.637,219.929 265.909,220.300 266.138 C 220.465 266.241,220.550 260.473,220.489 253.321 L 220.378 240.319 228.815 240.459 C 233.455 240.537,236.835 240.483,236.326 240.340 C 235.090 239.993,220.607 239.927,220.267 240.267 M189.000 242.400 C 188.659 243.060,188.469 243.600,188.579 243.600 C 188.689 243.600,189.059 243.060,189.400 242.400 C 189.741 241.740,189.931 241.200,189.821 241.200 C 189.711 241.200,189.341 241.740,189.000 242.400 M160.995 244.248 C 161.373 244.825,162.302 246.355,163.060 247.648 C 163.818 248.942,164.534 250.000,164.652 250.000 C 164.769 250.000,164.464 249.325,163.974 248.500 C 162.013 245.201,160.706 243.200,160.512 243.200 C 160.400 243.200,160.617 243.672,160.995 244.248 M171.414 245.035 C 171.041 245.604,170.805 246.138,170.889 246.222 C 170.973 246.307,171.358 245.841,171.744 245.188 C 172.606 243.728,172.348 243.609,171.414 245.035 M186.600 246.400 C 186.259 247.060,186.069 247.600,186.179 247.600 C 186.289 247.600,186.659 247.060,187.000 246.400 C 187.341 245.740,187.531 245.200,187.421 245.200 C 187.311 245.200,186.941 245.740,186.600 246.400 M259.044 246.200 C 259.373 247.671,259.602 247.990,259.594 246.967 C 259.591 246.545,259.405 245.930,259.182 245.600 C 258.885 245.162,258.848 245.324,259.044 246.200 M146.009 245.900 C 146.014 246.065,146.385 246.650,146.833 247.200 L 147.648 248.200 147.014 246.900 C 146.411 245.665,145.989 245.245,146.009 245.900 M169.179 248.900 C 168.461 250.055,167.608 251.436,167.282 251.969 C 166.762 252.823,166.637 252.863,166.245 252.304 C 164.915 250.408,164.819 250.316,165.483 251.568 C 166.512 253.512,166.922 253.472,168.123 251.310 C 168.707 250.260,169.566 248.815,170.032 248.100 C 170.497 247.385,170.790 246.800,170.681 246.800 C 170.572 246.800,169.896 247.745,169.179 248.900 M148.430 249.800 C 148.924 250.680,149.500 251.580,149.710 251.800 C 150.309 252.428,148.939 249.894,148.196 249.000 C 147.830 248.560,147.935 248.920,148.430 249.800 M259.800 253.400 C 259.800 255.914,259.922 257.662,260.072 257.285 C 260.221 256.908,260.344 255.160,260.344 253.400 C 260.344 251.640,260.221 249.892,260.072 249.515 C 259.922 249.138,259.800 250.886,259.800 253.400 M184.200 250.400 C 183.859 251.060,183.669 251.600,183.779 251.600 C 183.889 251.600,184.259 251.060,184.600 250.400 C 184.941 249.740,185.131 249.200,185.021 249.200 C 184.911 249.200,184.541 249.740,184.200 250.400 M246.158 253.400 C 246.164 256.289,246.200 256.439,246.531 254.938 C 246.755 253.922,246.752 252.678,246.524 251.738 C 246.197 250.390,246.152 250.595,246.158 253.400 M182.708 252.900 C 181.833 254.249,181.048 255.856,181.487 255.400 C 182.048 254.817,183.698 252.000,183.479 252.000 C 183.376 252.000,183.029 252.405,182.708 252.900 M151.071 254.300 C 153.487 258.454,156.091 262.621,156.507 263.000 C 156.749 263.220,156.644 262.912,156.275 262.316 C 155.905 261.720,154.420 259.245,152.974 256.816 C 151.528 254.387,150.260 252.400,150.156 252.400 C 150.052 252.400,150.464 253.255,151.071 254.300 M180.553 256.500 C 179.176 258.836,179.086 259.035,179.787 258.200 C 180.600 257.232,181.300 256.000,181.038 256.000 C 180.933 256.000,180.715 256.225,180.553 256.500 M259.254 259.267 C 259.225 259.634,259.084 260.264,258.941 260.667 C 258.741 261.233,258.795 261.296,259.175 260.946 C 259.446 260.697,259.587 260.067,259.488 259.546 C 259.390 259.026,259.284 258.900,259.254 259.267 M178.424 260.118 C 178.123 260.603,177.615 261.405,177.293 261.900 C 176.971 262.395,176.795 262.800,176.901 262.800 C 177.183 262.800,179.286 259.553,179.115 259.381 C 179.035 259.302,178.724 259.633,178.424 260.118 M242.425 262.569 L 241.050 264.200 242.605 262.713 C 243.460 261.896,244.079 261.162,243.980 261.083 C 243.881 261.003,243.181 261.672,242.425 262.569 M175.853 264.500 L 175.133 265.800 175.958 264.800 C 176.689 263.913,177.014 263.200,176.686 263.200 C 176.624 263.200,176.249 263.785,175.853 264.500 M156.815 263.800 C 156.817 264.020,157.186 264.650,157.636 265.200 C 158.179 265.864,158.315 265.931,158.040 265.400 C 157.366 264.095,156.812 263.372,156.815 263.800 M236.000 266.000 C 235.176 266.264,235.141 266.326,235.800 266.354 C 236.240 266.373,236.870 266.213,237.200 266.000 C 237.901 265.547,237.414 265.547,236.000 266.000 M174.846 266.624 C 174.821 267.076,175.064 267.796,175.387 268.224 C 175.710 268.651,175.980 268.811,175.987 268.580 C 175.994 268.349,175.837 267.989,175.639 267.780 C 175.440 267.571,175.191 267.040,175.085 266.600 C 174.897 265.820,174.892 265.820,174.846 266.624 M176.615 270.300 C 177.956 272.385,178.400 272.977,178.400 272.680 C 178.400 272.296,176.355 269.200,176.101 269.200 C 175.995 269.200,176.226 269.695,176.615 270.300 M253.400 270.800 C 252.768 271.460,252.419 271.990,252.625 271.978 C 252.978 271.957,255.039 269.600,254.705 269.600 C 254.620 269.600,254.032 270.140,253.400 270.800 M154.384 273.500 C 153.237 275.425,151.947 277.585,151.517 278.300 C 151.087 279.015,150.824 279.600,150.933 279.600 C 151.042 279.600,152.069 278.025,153.216 276.100 C 154.363 274.175,155.653 272.015,156.083 271.300 C 156.513 270.585,156.776 270.000,156.667 270.000 C 156.558 270.000,155.531 271.575,154.384 273.500 M251.379 272.833 C 251.232 273.072,250.032 274.062,248.712 275.033 C 246.046 276.996,245.898 277.472,248.528 275.626 C 250.849 273.997,252.610 272.400,252.086 272.400 C 251.845 272.400,251.527 272.595,251.379 272.833 M178.749 273.800 C 178.965 274.240,179.434 274.960,179.793 275.400 L 180.444 276.200 180.051 275.400 C 179.835 274.960,179.366 274.240,179.007 273.800 L 178.356 273.000 178.749 273.800 M181.149 277.800 C 181.365 278.240,181.834 278.960,182.193 279.400 L 182.844 280.200 182.451 279.400 C 182.235 278.960,181.766 278.240,181.407 277.800 L 180.756 277.000 181.149 277.800 M242.200 278.418 C 241.100 278.830,240.493 279.174,240.851 279.183 C 241.579 279.202,244.400 278.098,244.400 277.795 C 244.400 277.688,244.355 277.616,244.300 277.635 C 244.245 277.654,243.300 278.006,242.200 278.418 M236.705 279.883 C 237.202 279.979,237.922 279.975,238.305 279.875 C 238.687 279.775,238.280 279.696,237.400 279.701 C 236.520 279.705,236.207 279.787,236.705 279.883 M149.952 280.900 C 149.690 281.395,149.215 282.250,148.896 282.800 C 148.339 283.759,148.343 283.767,148.988 283.000 C 149.786 282.052,150.905 280.000,150.624 280.000 C 150.516 280.000,150.214 280.405,149.952 280.900 M165.949 280.900 C 165.511 281.720,165.529 281.751,166.144 281.243 C 166.516 280.937,166.871 280.757,166.934 280.843 C 166.997 280.929,167.641 281.945,168.366 283.100 C 169.090 284.255,169.765 285.200,169.865 285.200 C 170.070 285.200,169.978 285.037,168.110 282.100 C 166.581 279.694,166.589 279.698,165.949 280.900 M220.199 280.500 C 219.890 281.376,219.787 302.346,220.094 301.863 C 220.256 301.608,220.391 296.679,220.394 290.909 L 220.400 280.417 228.100 280.299 L 235.800 280.182 228.087 280.091 C 222.211 280.022,220.333 280.119,220.199 280.500 M183.400 281.600 C 183.741 282.260,184.111 282.800,184.221 282.800 C 184.331 282.800,184.141 282.260,183.800 281.600 C 183.459 280.940,183.089 280.400,182.979 280.400 C 182.869 280.400,183.059 280.940,183.400 281.600 M163.860 284.352 C 163.102 285.645,162.173 287.175,161.795 287.752 C 161.417 288.328,161.200 288.800,161.312 288.800 C 161.506 288.800,162.813 286.799,164.774 283.500 C 165.264 282.675,165.569 282.000,165.452 282.000 C 165.334 282.000,164.618 283.058,163.860 284.352 M147.508 284.900 C 147.187 285.395,146.707 286.250,146.440 286.800 C 145.760 288.203,146.994 286.706,147.841 285.100 C 148.539 283.774,148.323 283.644,147.508 284.900 M185.800 285.600 C 186.141 286.260,186.511 286.800,186.621 286.800 C 186.731 286.800,186.541 286.260,186.200 285.600 C 185.859 284.940,185.489 284.400,185.379 284.400 C 185.269 284.400,185.459 284.940,185.800 285.600 M170.015 285.800 C 170.017 286.020,170.386 286.650,170.836 287.200 C 171.379 287.864,171.515 287.931,171.240 287.400 C 170.566 286.095,170.012 285.372,170.015 285.800 M145.014 289.035 C 144.641 289.604,144.427 290.161,144.539 290.272 C 144.650 290.383,145.029 289.918,145.381 289.237 C 146.159 287.733,145.944 287.615,145.014 289.035 M188.200 289.600 C 188.541 290.260,188.911 290.800,189.021 290.800 C 189.131 290.800,188.941 290.260,188.600 289.600 C 188.259 288.940,187.889 288.400,187.779 288.400 C 187.669 288.400,187.859 288.940,188.200 289.600 M160.424 290.118 C 160.123 290.603,159.615 291.405,159.293 291.900 C 158.971 292.395,158.795 292.800,158.901 292.800 C 159.183 292.800,161.286 289.553,161.115 289.381 C 161.035 289.302,160.724 289.633,160.424 290.118 M172.415 289.800 C 172.417 290.020,172.786 290.650,173.236 291.200 C 173.779 291.864,173.915 291.931,173.640 291.400 C 172.966 290.095,172.412 289.372,172.415 289.800 M190.586 293.500 C 190.935 294.215,191.306 294.800,191.410 294.800 C 191.808 294.800,191.552 294.163,190.767 293.200 L 189.952 292.200 190.586 293.500 M174.815 293.800 C 174.817 294.020,175.186 294.650,175.636 295.200 C 176.179 295.864,176.315 295.931,176.040 295.400 C 175.366 294.095,174.812 293.372,174.815 293.800 M191.790 295.501 C 192.981 297.806,193.194 298.126,193.189 297.600 C 193.185 297.270,192.811 296.550,192.356 296.000 C 191.902 295.450,191.647 295.226,191.790 295.501 M139.867 297.867 C 139.500 298.233,139.529 301.909,139.900 302.137 C 140.065 302.238,140.200 301.258,140.200 299.960 C 140.200 298.662,140.185 297.600,140.167 297.600 C 140.148 297.600,140.013 297.720,139.867 297.867 M177.209 297.900 C 177.214 298.065,177.585 298.650,178.033 299.200 L 178.848 300.200 178.214 298.900 C 177.611 297.665,177.189 297.245,177.209 297.900 M193.289 300.000 C 193.300 301.428,193.372 301.614,193.638 300.900 C 193.823 300.405,193.817 299.595,193.625 299.100 C 193.346 298.381,193.279 298.562,193.289 300.000 M152.229 303.500 C 151.382 304.765,151.039 305.489,151.466 305.109 C 152.183 304.471,154.229 301.200,153.910 301.200 C 153.833 301.200,153.077 302.235,152.229 303.500 M179.624 301.738 C 179.588 302.246,181.225 304.479,182.381 305.500 C 184.081 307.001,183.999 306.508,182.247 304.698 C 181.341 303.763,180.386 302.638,180.124 302.198 C 179.861 301.759,179.636 301.552,179.624 301.738 M206.828 302.500 C 206.798 303.261,209.716 306.400,210.454 306.400 C 210.704 306.400,210.389 306.000,209.754 305.511 C 208.546 304.580,207.587 303.450,207.128 302.413 C 206.901 301.900,206.852 301.914,206.828 302.500 M217.709 304.638 C 216.779 305.607,216.176 306.400,216.369 306.400 C 216.831 306.400,219.600 303.623,219.600 303.160 C 219.600 302.665,219.609 302.658,217.709 304.638 M190.800 305.260 C 190.030 305.935,189.762 306.305,190.204 306.081 C 190.935 305.711,192.747 303.978,192.362 304.016 C 192.273 304.025,191.570 304.585,190.800 305.260 M144.938 306.894 C 145.192 307.056,145.940 307.188,146.600 307.188 C 147.260 307.188,148.008 307.056,148.262 306.894 C 148.516 306.732,147.768 306.600,146.600 306.600 C 145.432 306.600,144.684 306.732,144.938 306.894 M184.904 306.873 C 185.537 307.275,188.294 307.296,188.538 306.900 C 188.639 306.735,187.752 306.591,186.565 306.579 C 185.370 306.567,184.629 306.698,184.904 306.873 M212.084 306.861 C 212.368 307.041,212.960 307.188,213.400 307.188 C 213.840 307.188,214.432 307.041,214.716 306.861 C 215.026 306.663,214.503 306.533,213.400 306.533 C 212.297 306.533,211.774 306.663,212.084 306.861 " stroke="none" fill="#9b9b9b" fill-rule="evenodd"></path><path id="path4" d="M197.706 13.647 C 195.538 14.480,192.800 17.211,192.800 18.541 C 192.800 18.904,192.620 19.200,192.400 19.200 C 192.180 19.200,192.000 19.560,192.000 20.000 C 192.000 20.440,191.820 20.800,191.600 20.800 C 191.380 20.800,191.200 21.078,191.200 21.417 C 191.200 21.756,190.840 22.420,190.400 22.892 C 189.960 23.364,189.600 24.077,189.600 24.475 C 189.600 24.874,189.420 25.200,189.200 25.200 C 188.980 25.200,188.800 25.470,188.800 25.800 C 188.800 26.130,188.664 26.400,188.498 26.400 C 188.331 26.400,187.941 26.985,187.630 27.700 C 187.319 28.415,186.906 29.106,186.712 29.236 C 186.518 29.366,186.331 29.853,186.296 30.319 C 186.261 30.785,186.158 31.092,186.068 31.001 C 185.977 30.911,185.441 31.773,184.876 32.918 C 184.310 34.063,183.702 35.060,183.524 35.133 C 183.346 35.207,183.200 35.522,183.200 35.833 C 183.200 36.145,183.009 36.400,182.776 36.400 C 182.543 36.400,182.455 36.565,182.580 36.768 C 182.705 36.970,182.536 37.407,182.204 37.739 C 181.872 38.071,181.600 38.626,181.600 38.971 C 181.600 39.317,181.420 39.600,181.200 39.600 C 180.980 39.600,180.800 39.825,180.800 40.100 C 180.799 40.800,179.194 42.512,178.000 43.086 C 176.582 43.768,172.497 44.803,168.200 45.569 C 167.100 45.765,165.120 46.197,163.800 46.529 C 162.480 46.861,160.860 47.230,160.200 47.350 C 159.540 47.470,158.280 47.746,157.400 47.964 C 156.520 48.182,155.800 48.358,155.800 48.355 C 155.800 48.351,155.530 48.438,155.200 48.547 C 154.870 48.656,153.970 48.839,153.200 48.954 C 149.945 49.438,149.159 49.767,147.501 51.342 C 144.185 54.489,144.153 58.659,147.418 62.181 C 147.937 62.741,148.287 63.200,148.197 63.200 C 148.106 63.200,148.744 63.906,149.616 64.769 C 150.487 65.631,151.200 66.479,151.200 66.652 C 151.200 66.825,152.100 67.825,153.200 68.874 C 154.300 69.924,155.200 70.931,155.200 71.113 C 155.200 71.295,156.280 72.565,157.600 73.935 C 158.920 75.305,160.000 76.591,160.000 76.793 C 160.000 76.995,160.315 77.344,160.700 77.568 C 161.085 77.792,161.262 77.981,161.093 77.988 C 160.924 77.995,161.374 78.588,162.093 79.306 C 165.877 83.087,165.989 83.346,165.995 88.276 C 165.998 90.738,165.856 92.842,165.680 92.951 C 165.504 93.059,165.312 94.689,165.253 96.572 C 165.194 98.455,164.978 100.580,164.773 101.295 C 164.568 102.010,164.400 103.980,164.400 105.674 C 164.400 107.367,164.228 108.859,164.018 108.989 C 163.508 109.304,163.580 116.890,164.109 118.616 C 164.925 121.273,169.175 123.522,172.021 122.803 C 174.584 122.155,175.200 121.908,175.200 121.530 C 175.200 121.322,175.350 121.245,175.533 121.359 C 175.716 121.472,176.481 121.152,177.233 120.649 C 177.985 120.145,179.590 119.388,180.800 118.967 C 182.010 118.546,183.240 117.974,183.532 117.697 C 183.825 117.420,184.230 117.295,184.432 117.420 C 184.635 117.545,184.800 117.457,184.800 117.224 C 184.800 116.991,185.064 116.800,185.386 116.800 C 185.708 116.800,186.765 116.357,187.735 115.816 C 188.705 115.274,189.611 114.944,189.749 115.082 C 189.887 115.220,190.000 115.123,190.000 114.867 C 190.000 114.610,190.360 114.400,190.800 114.400 C 191.240 114.400,191.601 114.265,191.603 114.100 C 191.607 113.741,193.544 112.800,194.280 112.800 C 194.566 112.800,194.800 112.620,194.800 112.400 C 194.800 112.180,195.160 112.000,195.600 112.000 C 196.040 112.000,196.400 111.820,196.400 111.600 C 196.400 111.380,196.839 111.200,197.376 111.200 C 197.913 111.200,198.464 111.020,198.600 110.800 C 198.736 110.580,199.366 110.400,200.000 110.400 C 200.634 110.400,201.264 110.580,201.400 110.800 C 201.536 111.020,202.087 111.200,202.624 111.200 C 203.161 111.200,203.600 111.380,203.600 111.600 C 203.600 111.820,203.960 112.000,204.400 112.000 C 204.840 112.000,205.200 112.180,205.200 112.400 C 205.200 112.620,205.549 112.800,205.976 112.800 C 206.403 112.800,206.864 112.980,207.000 113.200 C 207.136 113.420,207.607 113.600,208.047 113.600 C 208.487 113.600,208.736 113.780,208.600 114.000 C 208.460 114.227,208.796 114.400,209.376 114.400 C 209.939 114.400,210.400 114.580,210.400 114.800 C 210.400 115.020,210.579 115.200,210.797 115.200 C 211.217 115.200,217.644 118.192,222.987 120.875 C 226.218 122.498,229.629 123.220,231.073 122.588 C 231.831 122.255,232.196 122.135,232.700 122.049 C 233.296 121.948,235.445 119.777,235.949 118.766 C 236.617 117.426,235.914 102.187,235.128 100.983 C 234.978 100.753,234.819 99.043,234.776 97.183 C 234.732 95.322,234.541 93.501,234.353 93.135 C 233.814 92.091,233.809 83.864,234.347 83.684 C 234.596 83.601,234.800 83.344,234.800 83.114 C 234.800 82.883,235.188 82.358,235.661 81.947 C 236.135 81.536,236.398 81.200,236.245 81.200 C 236.092 81.200,236.650 80.524,237.484 79.697 C 238.318 78.871,239.450 77.522,240.000 76.700 C 240.550 75.878,241.135 75.204,241.300 75.203 C 241.465 75.201,241.600 74.919,241.600 74.576 C 241.600 74.233,241.780 74.064,242.000 74.200 C 242.220 74.336,242.400 74.150,242.400 73.786 C 242.400 73.423,242.760 73.031,243.200 72.916 C 243.640 72.801,244.000 72.459,244.000 72.157 C 244.000 71.854,244.360 71.382,244.800 71.107 C 245.240 70.832,245.600 70.370,245.600 70.080 C 245.600 69.790,245.780 69.664,246.000 69.800 C 246.220 69.936,246.400 69.895,246.400 69.710 C 246.400 69.266,248.059 67.248,250.899 64.237 C 252.164 62.897,253.199 61.485,253.199 61.100 C 253.200 60.715,253.481 60.400,253.824 60.400 C 254.167 60.400,254.356 60.252,254.244 60.071 C 254.132 59.891,254.287 59.268,254.589 58.687 C 255.213 57.483,255.150 55.401,254.449 54.091 C 254.187 53.601,254.081 53.200,254.214 53.200 C 254.348 53.200,254.219 52.952,253.929 52.649 C 253.638 52.346,253.147 51.732,252.838 51.285 C 252.529 50.838,252.063 50.555,251.802 50.655 C 251.541 50.755,251.097 50.558,250.815 50.218 C 250.533 49.878,249.975 49.600,249.575 49.600 C 249.175 49.600,248.759 49.458,248.652 49.284 C 248.544 49.110,247.777 48.922,246.947 48.866 C 246.118 48.810,245.244 48.602,245.006 48.405 C 244.768 48.207,243.724 48.002,242.687 47.948 C 241.649 47.894,240.800 47.691,240.800 47.495 C 240.800 47.300,240.305 47.188,239.700 47.247 C 239.095 47.307,238.195 47.134,237.700 46.863 C 237.205 46.593,236.800 46.449,236.800 46.544 C 236.800 46.638,236.125 46.549,235.300 46.346 C 234.475 46.142,233.190 45.887,232.445 45.777 C 231.699 45.668,230.889 45.450,230.645 45.292 C 230.400 45.135,229.840 44.993,229.400 44.977 C 228.960 44.961,228.189 44.810,227.686 44.642 C 227.183 44.475,226.160 44.280,225.412 44.211 C 224.664 44.141,223.472 43.795,222.764 43.442 C 222.056 43.089,221.247 42.800,220.965 42.800 C 220.684 42.800,220.340 42.440,220.200 42.000 C 220.060 41.560,219.748 41.200,219.506 41.200 C 219.265 41.200,219.171 41.095,219.299 40.967 C 219.427 40.840,219.097 40.094,218.566 39.312 C 218.035 38.529,217.600 37.658,217.600 37.378 C 217.600 37.097,217.465 36.807,217.300 36.733 C 217.135 36.660,216.554 35.700,216.010 34.600 C 215.465 33.500,214.923 32.510,214.804 32.400 C 214.686 32.290,214.142 31.300,213.595 30.200 C 213.048 29.100,212.465 28.140,212.300 28.067 C 212.135 27.993,212.000 27.588,212.000 27.167 C 212.000 26.745,211.820 26.400,211.600 26.400 C 211.380 26.400,211.200 26.130,211.200 25.800 C 211.200 25.470,211.020 25.200,210.800 25.200 C 210.580 25.200,210.400 24.930,210.400 24.600 C 210.400 24.270,210.220 24.000,210.000 24.000 C 209.780 24.000,209.600 23.640,209.600 23.200 C 209.600 22.760,209.420 22.400,209.200 22.400 C 208.980 22.400,208.800 22.040,208.800 21.600 C 208.800 21.160,208.620 20.800,208.400 20.800 C 208.180 20.800,208.000 20.440,208.000 20.000 C 208.000 19.560,207.820 19.200,207.600 19.200 C 207.380 19.200,207.200 18.840,207.200 18.400 C 207.200 17.960,207.042 17.600,206.849 17.600 C 206.655 17.600,206.280 17.075,206.014 16.434 C 205.748 15.791,205.009 15.052,204.366 14.786 C 203.725 14.520,203.200 14.115,203.200 13.885 C 203.200 13.655,203.087 13.580,202.949 13.717 C 202.811 13.855,202.069 13.705,201.300 13.384 C 200.531 13.063,199.879 12.809,199.851 12.821 C 199.823 12.832,198.858 13.204,197.706 13.647 M218.523 226.699 C 221.341 226.768,225.841 226.768,228.523 226.699 C 231.205 226.630,228.900 226.573,223.400 226.573 C 217.900 226.574,215.705 226.630,218.523 226.699 M220.348 266.509 C 220.519 266.679,223.975 266.769,228.029 266.708 L 235.400 266.598 227.719 266.399 C 223.495 266.290,220.178 266.339,220.348 266.509 M74.954 279.500 C 75.257 288.384,75.825 293.345,77.195 299.100 C 77.418 300.035,77.759 301.475,77.954 302.300 C 78.344 303.950,79.505 307.743,80.005 309.000 C 80.181 309.440,80.908 311.330,81.623 313.200 C 85.970 324.577,92.727 334.714,102.717 344.846 C 105.670 347.841,108.244 350.541,108.437 350.846 C 108.723 351.298,108.789 351.283,108.794 350.764 C 108.797 350.415,107.041 348.435,104.891 346.364 C 100.228 341.873,96.111 337.229,93.399 333.400 C 92.308 331.860,91.277 330.540,91.107 330.467 C 90.938 330.393,90.800 330.151,90.800 329.928 C 90.800 329.706,90.449 329.031,90.020 328.429 C 84.184 320.232,78.826 306.179,76.590 293.200 C 75.920 289.315,75.256 279.012,75.474 275.900 C 75.662 273.220,75.602 272.400,75.215 272.400 C 74.819 272.400,74.763 273.925,74.954 279.500 M324.438 277.100 C 324.617 295.792,318.986 315.780,309.980 328.429 C 309.551 329.031,309.200 329.706,309.200 329.928 C 309.200 330.151,309.053 330.393,308.872 330.467 C 308.692 330.540,307.814 331.680,306.922 333.000 C 304.660 336.345,299.748 341.911,295.117 346.376 C 292.962 348.453,291.203 350.433,291.206 350.776 C 291.211 351.288,291.275 351.301,291.563 350.846 C 291.756 350.541,294.327 347.841,297.277 344.846 C 300.227 341.851,303.351 338.500,304.220 337.400 C 305.089 336.300,305.911 335.310,306.046 335.200 C 309.911 332.061,319.890 311.508,322.069 302.200 C 324.186 293.158,324.712 289.153,325.050 279.500 C 325.231 274.334,325.176 272.400,324.846 272.400 C 324.532 272.400,324.407 273.841,324.438 277.100 M224.500 279.898 C 226.645 279.970,230.155 279.970,232.300 279.898 C 234.445 279.826,232.690 279.767,228.400 279.767 C 224.110 279.767,222.355 279.826,224.500 279.898 " stroke="none" fill="#8c8c8c" fill-rule="evenodd"></path></g></svg>